<svg width="348" height="355" viewBox="0 0 348 355" fill="none" xmlns="http://www.w3.org/2000/svg">
<path d="M347.54 181.646C347.54 167.068 346.357 156.431 343.797 145.399H177.338V211.194H275.046C273.077 227.545 262.439 252.169 238.799 268.716L238.468 270.919L291.099 311.692L294.746 312.056C328.234 281.127 347.54 235.622 347.54 181.646Z" fill="#4285F4"/>
<path d="M177.338 355C225.207 355 265.393 339.24 294.746 312.056L238.799 268.716C223.828 279.157 203.734 286.445 177.338 286.445C130.454 286.445 90.6614 255.518 76.4766 212.771L74.3974 212.948L19.6705 255.301L18.9548 257.291C48.1095 315.206 107.996 355 177.338 355Z" fill="#34A853"/>
<path d="M76.4766 212.771C72.7338 201.74 70.5677 189.919 70.5677 177.706C70.5677 165.492 72.7338 153.673 76.2797 142.641L76.1805 140.292L20.7678 97.2577L18.9548 98.1201C6.93879 122.154 0.0439453 149.142 0.0439453 177.706C0.0439453 206.27 6.93879 233.257 18.9548 257.291L76.4766 212.771Z" fill="#FBBC05"/>
<path d="M177.338 68.9653C210.629 68.9653 233.086 83.3458 245.891 95.3632L295.927 46.5085C265.197 17.9446 225.207 0.412109 177.338 0.412109C107.996 0.412109 48.1095 40.2044 18.9548 98.12L76.2797 142.641C90.6614 99.8936 130.454 68.9653 177.338 68.9653Z" fill="#EB4335"/>
</svg>
