<svg width="720" height="1024" viewBox="0 0 720 1024" fill="none" xmlns="http://www.w3.org/2000/svg">
<rect width="720" height="1024" fill="white"/>
<g clip-path="url(#clip0_1_2)">
<path d="M268.603 326.203H31V404.204H40.0004V424.605L60.4003 404.204H268.603V326.203Z" fill="#F0F0F0"/>
<path d="M262.003 333.799H37.6V396.2H262.003V333.799Z" fill="white"/>
<path d="M165.49 352.618H57.4455V355.897H165.49V352.618Z" fill="#F0F0F0"/>
<path d="M245.757 363.96H57.4455V367.239H245.757V363.96Z" fill="#F0F0F0"/>
<path d="M245.573 375.303H57.4455V378.582H245.573V375.303Z" fill="#F0F0F0"/>
<path d="M430.127 502.391C430.127 502.391 431.26 478.659 454.478 481.418Z" fill="#F0F0F0"/>
<path d="M423.567 479.807C429.984 479.807 435.187 474.604 435.187 468.187C435.187 461.769 429.984 456.566 423.567 456.566C417.149 456.566 411.946 461.769 411.946 468.187C411.946 474.604 417.149 479.807 423.567 479.807Z" fill="#F0F0F0"/>
<path d="M424.956 487.755H421.676V510.716H424.956V487.755Z" fill="#F0F0F0"/>
<path d="M538.965 466.061C590.829 466.061 632.873 424.017 632.873 372.152C632.873 320.288 590.829 278.244 538.965 278.244C487.101 278.244 445.056 320.288 445.056 372.152C445.056 424.017 487.101 466.061 538.965 466.061Z" fill="#3F3D56"/>
<path d="M479.844 379.691C482.176 376.899 485.093 374.653 488.388 373.111C491.684 371.57 495.278 370.771 498.916 370.771C502.554 370.771 506.147 371.57 509.443 373.111C512.738 374.653 515.655 376.899 517.988 379.691C521.939 375.919 524.683 371.06 525.873 365.728C527.063 360.396 526.645 354.832 524.672 349.738C522.699 344.643 519.26 340.249 514.789 337.109C510.319 333.97 505.018 332.226 499.556 332.1C494.095 331.973 488.719 333.469 484.108 336.397C479.496 339.326 475.857 343.556 473.65 348.553C471.443 353.551 470.767 359.09 471.708 364.471C472.65 369.852 475.165 374.833 478.937 378.784C479.232 379.093 479.535 379.396 479.844 379.691Z" fill="white"/>
<path d="M554.418 379.691C556.75 376.899 559.667 374.653 562.963 373.111C566.258 371.57 569.852 370.771 573.49 370.771C577.128 370.771 580.722 371.57 584.017 373.111C587.313 374.653 590.23 376.899 592.562 379.691C596.513 375.919 599.257 371.06 600.447 365.728C601.637 360.396 601.219 354.832 599.246 349.738C597.273 344.643 593.834 340.249 589.364 337.109C584.893 333.97 579.592 332.226 574.131 332.1C568.67 331.973 563.293 333.469 558.682 336.397C554.071 339.326 550.431 343.556 548.224 348.553C546.017 353.551 545.342 359.09 546.283 364.471C547.224 369.852 549.74 374.833 553.512 378.784C553.807 379.093 554.109 379.396 554.418 379.691Z" fill="white"/>
<path d="M489.494 359.808C494.741 359.808 498.995 355.555 498.995 350.307C498.995 345.06 494.741 340.806 489.494 340.806C484.246 340.806 479.993 345.06 479.993 350.307C479.993 355.555 484.246 359.808 489.494 359.808Z" fill="#3F3D56"/>
<path d="M564.065 359.808C569.313 359.808 573.566 355.555 573.566 350.307C573.566 345.06 569.313 340.806 564.065 340.806C558.818 340.806 554.564 345.06 554.564 350.307C554.564 355.555 558.818 359.808 564.065 359.808Z" fill="#3F3D56"/>
<path d="M471.295 406.678C477.397 406.678 482.343 401.731 482.343 395.629C482.343 389.528 477.397 384.581 471.295 384.581C465.194 384.581 460.247 389.528 460.247 395.629C460.247 401.731 465.194 406.678 471.295 406.678Z" fill="#027FFF"/>
<path d="M598.348 406.678C604.45 406.678 609.396 401.731 609.396 395.629C609.396 389.528 604.45 384.581 598.348 384.581C592.246 384.581 587.3 389.528 587.3 395.629C587.3 401.731 592.246 406.678 598.348 406.678Z" fill="#027FFF"/>
<path d="M534.822 373.533L526.536 409.439L540.345 395.63L534.822 373.533Z" fill="#027FFF"/>
<path d="M577.398 511.634L567.99 503.739L568.209 511.634H565.288L565.054 503.286L552.353 511.634H547.036L564.96 499.853L564.265 475.115L563.746 456.432L566.661 456.352L567.187 475.115L567.88 499.831L581.94 511.634H577.398Z" fill="#3F3D56"/>
<path d="M533.202 511.634L523.795 503.739L524.014 511.634H521.1L520.866 503.286L508.164 511.634H502.847L520.764 499.853L520.07 475.115L519.552 456.432L522.473 456.352L522.999 475.115L523.685 499.831L537.745 511.634H533.202Z" fill="#3F3D56"/>
<path d="M540.346 271.339C537.769 271.339 535.496 273.34 533.976 276.415C532.637 271.792 529.822 268.577 526.536 268.577C526.312 268.599 526.091 268.636 525.872 268.688C524.609 263.752 521.673 260.291 518.25 260.291C513.673 260.291 509.964 266.474 509.964 274.101C509.964 281.728 513.673 287.911 518.25 287.911C518.473 287.889 518.695 287.851 518.913 287.8C520.176 292.735 523.113 296.197 526.536 296.197C529.112 296.197 531.386 294.195 532.905 291.121C534.245 295.744 537.059 298.959 540.346 298.959C544.922 298.959 548.632 292.776 548.632 285.149C548.632 277.522 544.922 271.339 540.346 271.339Z" fill="#3F3D56"/>
<path d="M450.425 375.074L398.694 366.684C396.087 366.261 393.433 365.837 390.817 366.205C388.202 366.573 385.584 367.861 384.251 370.14C383.61 371.236 383.3 372.493 383.357 373.761C383.413 375.029 383.835 376.254 384.571 377.288C385.307 378.322 386.326 379.121 387.506 379.59C388.685 380.059 389.975 380.177 391.22 379.93C388.396 379.838 385.428 379.778 382.923 381.083C380.417 382.388 378.643 385.558 379.864 388.105C380.231 388.808 380.727 389.436 381.326 389.955C383.212 391.646 385.537 392.767 388.034 393.191C390.531 393.614 393.096 393.322 395.434 392.348C393.529 395.079 389.75 395.485 386.481 396.117C383.212 396.749 379.433 398.598 379.312 401.926C379.175 405.664 383.625 407.652 387.288 408.413C406.847 412.437 427.149 410.782 445.798 403.644C447.894 402.923 449.878 401.91 451.691 400.635C453.723 399.092 455.268 396.995 456.14 394.597C457.012 392.198 457.174 389.6 456.607 387.111C456.04 384.623 454.768 382.351 452.944 380.567C451.119 378.783 448.819 377.562 446.319 377.052" fill="#3F3D56"/>
<path d="M673.715 417.477C665.177 399.425 651.653 384.193 634.739 373.578C632.903 372.336 630.902 371.359 628.793 370.676C626.338 369.979 623.734 370.005 621.293 370.749C618.852 371.494 616.678 372.926 615.03 374.874C613.382 376.823 612.33 379.205 612.001 381.735C611.671 384.266 612.078 386.838 613.173 389.143L609.124 387.049C617.252 402.513 625.38 417.976 633.508 433.439C634.736 435.777 635.993 438.153 637.859 440.022C639.725 441.891 642.327 443.21 644.95 442.905C645.992 442.788 646.99 442.423 647.861 441.84C648.732 441.258 649.451 440.475 649.956 439.557C650.462 438.639 650.741 437.614 650.768 436.566C650.795 435.518 650.571 434.48 650.114 433.537C651.254 435.145 652.754 436.464 654.495 437.391C657.043 438.609 660.644 438.122 661.945 435.615C662.287 434.899 662.491 434.125 662.545 433.334C662.763 430.811 662.262 428.278 661.1 426.028C659.938 423.778 658.162 421.904 655.979 420.621C659.306 420.501 661.902 423.278 664.372 425.511C666.842 427.744 670.591 429.653 673.323 427.75C676.394 425.612 675.308 420.862 673.715 417.477Z" fill="#3F3D56"/>
<path d="M73.4671 235H416.393V347.577H403.403V377.019L373.961 347.577H73.4671V235Z" fill="#CACACA"/>
<path d="M406.868 245.963H82.9929V336.024H406.868V245.963Z" fill="white"/>
<path d="M264.975 272.257H109.037V276.989H264.975V272.257Z" fill="#027FFF"/>
<path d="M380.823 288.627H109.037V293.36H380.823V288.627Z" fill="#027FFF"/>
<path d="M380.557 304.998H109.037V309.73H380.557V304.998Z" fill="#027FFF"/>
<path d="M688.238 512.396H398.051C397.849 512.396 397.655 512.316 397.512 512.173C397.369 512.03 397.289 511.836 397.289 511.634C397.289 511.432 397.369 511.239 397.512 511.096C397.655 510.953 397.849 510.873 398.051 510.873H688.238C688.44 510.873 688.634 510.953 688.777 511.096C688.92 511.239 689 511.432 689 511.634C689 511.836 688.92 512.03 688.777 512.173C688.634 512.316 688.44 512.396 688.238 512.396Z" fill="#CACACA"/>
</g>
<path d="M51.376 688.252C49.528 688.252 47.872 687.952 46.408 687.352C44.944 686.752 43.768 685.864 42.88 684.688C42.016 683.512 41.56 682.096 41.512 680.44H48.064C48.16 681.376 48.484 682.096 49.036 682.6C49.588 683.08 50.308 683.32 51.196 683.32C52.108 683.32 52.828 683.116 53.356 682.708C53.884 682.276 54.148 681.688 54.148 680.944C54.148 680.32 53.932 679.804 53.5 679.396C53.092 678.988 52.576 678.652 51.952 678.388C51.352 678.124 50.488 677.824 49.36 677.488C47.728 676.984 46.396 676.48 45.364 675.976C44.332 675.472 43.444 674.728 42.7 673.744C41.956 672.76 41.584 671.476 41.584 669.892C41.584 667.54 42.436 665.704 44.14 664.384C45.844 663.04 48.064 662.368 50.8 662.368C53.584 662.368 55.828 663.04 57.532 664.384C59.236 665.704 60.148 667.552 60.268 669.928H53.608C53.56 669.112 53.26 668.476 52.708 668.02C52.156 667.54 51.448 667.3 50.584 667.3C49.84 667.3 49.24 667.504 48.784 667.912C48.328 668.296 48.1 668.86 48.1 669.604C48.1 670.42 48.484 671.056 49.252 671.512C50.02 671.968 51.22 672.46 52.852 672.988C54.484 673.54 55.804 674.068 56.812 674.572C57.844 675.076 58.732 675.808 59.476 676.768C60.22 677.728 60.592 678.964 60.592 680.476C60.592 681.916 60.22 683.224 59.476 684.4C58.756 685.576 57.7 686.512 56.308 687.208C54.916 687.904 53.272 688.252 51.376 688.252ZM75.5764 682.78V688H72.4444C70.2124 688 68.4724 687.46 67.2244 686.38C65.9764 685.276 65.3524 683.488 65.3524 681.016V673.024H62.9044V667.912H65.3524V663.016H71.5084V667.912H75.5404V673.024H71.5084V681.088C71.5084 681.688 71.6524 682.12 71.9404 682.384C72.2284 682.648 72.7084 682.78 73.3804 682.78H75.5764ZM77.7814 677.92C77.7814 675.856 78.1654 674.044 78.9334 672.484C79.7254 670.924 80.7934 669.724 82.1374 668.884C83.4814 668.044 84.9814 667.624 86.6374 667.624C88.0534 667.624 89.2894 667.912 90.3454 668.488C91.4254 669.064 92.2534 669.82 92.8294 670.756V667.912H98.9854V688H92.8294V685.156C92.2294 686.092 91.3894 686.848 90.3094 687.424C89.2534 688 88.0174 688.288 86.6014 688.288C84.9694 688.288 83.4814 687.868 82.1374 687.028C80.7934 686.164 79.7254 684.952 78.9334 683.392C78.1654 681.808 77.7814 679.984 77.7814 677.92ZM92.8294 677.956C92.8294 676.42 92.3974 675.208 91.5334 674.32C90.6934 673.432 89.6614 672.988 88.4374 672.988C87.2134 672.988 86.1694 673.432 85.3054 674.32C84.4654 675.184 84.0454 676.384 84.0454 677.92C84.0454 679.456 84.4654 680.68 85.3054 681.592C86.1694 682.48 87.2134 682.924 88.4374 682.924C89.6614 682.924 90.6934 682.48 91.5334 681.592C92.3974 680.704 92.8294 679.492 92.8294 677.956ZM123.959 667.912L111.359 697.54H104.735L109.343 687.316L101.171 667.912H108.047L112.691 680.476L117.299 667.912H123.959ZM132.77 675.328C132.77 672.832 133.31 670.612 134.39 668.668C135.47 666.7 136.97 665.176 138.89 664.096C140.834 662.992 143.03 662.44 145.478 662.44C148.478 662.44 151.046 663.232 153.182 664.816C155.318 666.4 156.746 668.56 157.466 671.296H150.698C150.194 670.24 149.474 669.436 148.538 668.884C147.626 668.332 146.582 668.056 145.406 668.056C143.51 668.056 141.974 668.716 140.798 670.036C139.622 671.356 139.034 673.12 139.034 675.328C139.034 677.536 139.622 679.3 140.798 680.62C141.974 681.94 143.51 682.6 145.406 682.6C146.582 682.6 147.626 682.324 148.538 681.772C149.474 681.22 150.194 680.416 150.698 679.36H157.466C156.746 682.096 155.318 684.256 153.182 685.84C151.046 687.4 148.478 688.18 145.478 688.18C143.03 688.18 140.834 687.64 138.89 686.56C136.97 685.456 135.47 683.932 134.39 681.988C133.31 680.044 132.77 677.824 132.77 675.328ZM170.38 688.288C168.412 688.288 166.636 687.868 165.052 687.028C163.492 686.188 162.256 684.988 161.344 683.428C160.456 681.868 160.012 680.044 160.012 677.956C160.012 675.892 160.468 674.08 161.38 672.52C162.292 670.936 163.54 669.724 165.124 668.884C166.708 668.044 168.484 667.624 170.452 667.624C172.42 667.624 174.196 668.044 175.78 668.884C177.364 669.724 178.612 670.936 179.524 672.52C180.436 674.08 180.892 675.892 180.892 677.956C180.892 680.02 180.424 681.844 179.488 683.428C178.576 684.988 177.316 686.188 175.708 687.028C174.124 687.868 172.348 688.288 170.38 688.288ZM170.38 682.96C171.556 682.96 172.552 682.528 173.368 681.664C174.208 680.8 174.628 679.564 174.628 677.956C174.628 676.348 174.22 675.112 173.404 674.248C172.612 673.384 171.628 672.952 170.452 672.952C169.252 672.952 168.256 673.384 167.464 674.248C166.672 675.088 166.276 676.324 166.276 677.956C166.276 679.564 166.66 680.8 167.428 681.664C168.22 682.528 169.204 682.96 170.38 682.96ZM196.398 667.696C198.75 667.696 200.622 668.464 202.014 670C203.43 671.512 204.138 673.6 204.138 676.264V688H198.018V677.092C198.018 675.748 197.67 674.704 196.974 673.96C196.278 673.216 195.342 672.844 194.166 672.844C192.99 672.844 192.054 673.216 191.358 673.96C190.662 674.704 190.314 675.748 190.314 677.092V688H184.158V667.912H190.314V670.576C190.938 669.688 191.778 668.992 192.834 668.488C193.89 667.96 195.078 667.696 196.398 667.696ZM220.656 667.696C223.008 667.696 224.88 668.464 226.272 670C227.688 671.512 228.396 673.6 228.396 676.264V688H222.276V677.092C222.276 675.748 221.928 674.704 221.232 673.96C220.536 673.216 219.6 672.844 218.424 672.844C217.248 672.844 216.312 673.216 215.616 673.96C214.92 674.704 214.572 675.748 214.572 677.092V688H208.416V667.912H214.572V670.576C215.196 669.688 216.036 668.992 217.092 668.488C218.148 667.96 219.336 667.696 220.656 667.696ZM251.609 677.632C251.609 678.208 251.573 678.808 251.501 679.432H237.569C237.665 680.68 238.061 681.64 238.757 682.312C239.477 682.96 240.353 683.284 241.385 683.284C242.921 683.284 243.989 682.636 244.589 681.34H251.141C250.805 682.66 250.193 683.848 249.305 684.904C248.441 685.96 247.349 686.788 246.029 687.388C244.709 687.988 243.233 688.288 241.601 688.288C239.633 688.288 237.881 687.868 236.345 687.028C234.809 686.188 233.609 684.988 232.745 683.428C231.881 681.868 231.449 680.044 231.449 677.956C231.449 675.868 231.869 674.044 232.709 672.484C233.573 670.924 234.773 669.724 236.309 668.884C237.845 668.044 239.609 667.624 241.601 667.624C243.545 667.624 245.273 668.032 246.785 668.848C248.297 669.664 249.473 670.828 250.313 672.34C251.177 673.852 251.609 675.616 251.609 677.632ZM245.309 676.012C245.309 674.956 244.949 674.116 244.229 673.492C243.509 672.868 242.609 672.556 241.529 672.556C240.497 672.556 239.621 672.856 238.901 673.456C238.205 674.056 237.773 674.908 237.605 676.012H245.309ZM253.633 677.956C253.633 675.868 254.053 674.044 254.893 672.484C255.757 670.924 256.945 669.724 258.457 668.884C259.993 668.044 261.745 667.624 263.713 667.624C266.233 667.624 268.333 668.284 270.013 669.604C271.717 670.924 272.833 672.784 273.361 675.184H266.809C266.257 673.648 265.189 672.88 263.605 672.88C262.477 672.88 261.577 673.324 260.905 674.212C260.233 675.076 259.897 676.324 259.897 677.956C259.897 679.588 260.233 680.848 260.905 681.736C261.577 682.6 262.477 683.032 263.605 683.032C265.189 683.032 266.257 682.264 266.809 680.728H273.361C272.833 683.08 271.717 684.928 270.013 686.272C268.309 687.616 266.209 688.288 263.713 688.288C261.745 688.288 259.993 687.868 258.457 687.028C256.945 686.188 255.757 684.988 254.893 683.428C254.053 681.868 253.633 680.044 253.633 677.956ZM287.85 682.78V688H284.718C282.486 688 280.746 687.46 279.498 686.38C278.25 685.276 277.626 683.488 277.626 681.016V673.024H275.178V667.912H277.626V663.016H283.782V667.912H287.814V673.024H283.782V681.088C283.782 681.688 283.926 682.12 284.214 682.384C284.502 682.648 284.982 682.78 285.654 682.78H287.85ZM310.215 677.632C310.215 678.208 310.179 678.808 310.107 679.432H296.175C296.271 680.68 296.667 681.64 297.363 682.312C298.083 682.96 298.959 683.284 299.991 683.284C301.527 683.284 302.595 682.636 303.195 681.34H309.747C309.411 682.66 308.799 683.848 307.911 684.904C307.047 685.96 305.955 686.788 304.635 687.388C303.315 687.988 301.839 688.288 300.207 688.288C298.239 688.288 296.487 687.868 294.951 687.028C293.415 686.188 292.215 684.988 291.351 683.428C290.487 681.868 290.055 680.044 290.055 677.956C290.055 675.868 290.475 674.044 291.315 672.484C292.179 670.924 293.379 669.724 294.915 668.884C296.451 668.044 298.215 667.624 300.207 667.624C302.151 667.624 303.879 668.032 305.391 668.848C306.903 669.664 308.079 670.828 308.919 672.34C309.783 673.852 310.215 675.616 310.215 677.632ZM303.915 676.012C303.915 674.956 303.555 674.116 302.835 673.492C302.115 672.868 301.215 672.556 300.135 672.556C299.103 672.556 298.227 672.856 297.507 673.456C296.811 674.056 296.379 674.908 296.211 676.012H303.915ZM312.238 677.92C312.238 675.856 312.622 674.044 313.39 672.484C314.182 670.924 315.25 669.724 316.594 668.884C317.938 668.044 319.438 667.624 321.094 667.624C322.414 667.624 323.614 667.9 324.694 668.452C325.798 669.004 326.662 669.748 327.286 670.684V661.36H333.442V688H327.286V685.12C326.71 686.08 325.882 686.848 324.802 687.424C323.746 688 322.51 688.288 321.094 688.288C319.438 688.288 317.938 687.868 316.594 687.028C315.25 686.164 314.182 684.952 313.39 683.392C312.622 681.808 312.238 679.984 312.238 677.92ZM327.286 677.956C327.286 676.42 326.854 675.208 325.99 674.32C325.15 673.432 324.118 672.988 322.894 672.988C321.67 672.988 320.626 673.432 319.762 674.32C318.922 675.184 318.502 676.384 318.502 677.92C318.502 679.456 318.922 680.68 319.762 681.592C320.626 682.48 321.67 682.924 322.894 682.924C324.118 682.924 325.15 682.48 325.99 681.592C326.854 680.704 327.286 679.492 327.286 677.956ZM344.52 682.312L340.524 692.644H336.6L338.688 682.312H344.52ZM371.593 683.536H362.161L360.649 688H354.205L363.349 662.728H370.477L379.621 688H373.105L371.593 683.536ZM370.009 678.784L366.877 669.532L363.781 678.784H370.009ZM394.644 667.696C396.996 667.696 398.868 668.464 400.26 670C401.676 671.512 402.384 673.6 402.384 676.264V688H396.264V677.092C396.264 675.748 395.916 674.704 395.22 673.96C394.524 673.216 393.588 672.844 392.412 672.844C391.236 672.844 390.3 673.216 389.604 673.96C388.908 674.704 388.56 675.748 388.56 677.092V688H382.404V667.912H388.56V670.576C389.184 669.688 390.024 668.992 391.08 668.488C392.136 667.96 393.324 667.696 394.644 667.696ZM427.182 667.912L414.582 697.54H407.958L412.566 687.316L404.394 667.912H411.27L415.914 680.476L420.522 667.912H427.182ZM440.604 682.78V688H437.472C435.24 688 433.5 687.46 432.252 686.38C431.004 685.276 430.38 683.488 430.38 681.016V673.024H427.932V667.912H430.38V663.016H436.536V667.912H440.568V673.024H436.536V681.088C436.536 681.688 436.68 682.12 436.968 682.384C437.256 682.648 437.736 682.78 438.408 682.78H440.604ZM447.129 665.824C446.049 665.824 445.161 665.512 444.465 664.888C443.793 664.24 443.457 663.448 443.457 662.512C443.457 661.552 443.793 660.76 444.465 660.136C445.161 659.488 446.049 659.164 447.129 659.164C448.185 659.164 449.049 659.488 449.721 660.136C450.417 660.76 450.765 661.552 450.765 662.512C450.765 663.448 450.417 664.24 449.721 664.888C449.049 665.512 448.185 665.824 447.129 665.824ZM450.189 667.912V688H444.033V667.912H450.189ZM480.282 667.696C482.778 667.696 484.758 668.452 486.222 669.964C487.71 671.476 488.454 673.576 488.454 676.264V688H482.334V677.092C482.334 675.796 481.986 674.8 481.29 674.104C480.618 673.384 479.682 673.024 478.482 673.024C477.282 673.024 476.334 673.384 475.638 674.104C474.966 674.8 474.63 675.796 474.63 677.092V688H468.51V677.092C468.51 675.796 468.162 674.8 467.466 674.104C466.794 673.384 465.858 673.024 464.658 673.024C463.458 673.024 462.51 673.384 461.814 674.104C461.142 674.8 460.806 675.796 460.806 677.092V688H454.65V667.912H460.806V670.432C461.43 669.592 462.246 668.932 463.254 668.452C464.262 667.948 465.402 667.696 466.674 667.696C468.186 667.696 469.53 668.02 470.706 668.668C471.906 669.316 472.842 670.24 473.514 671.44C474.21 670.336 475.158 669.436 476.358 668.74C477.558 668.044 478.866 667.696 480.282 667.696ZM511.695 677.632C511.695 678.208 511.659 678.808 511.587 679.432H497.655C497.751 680.68 498.147 681.64 498.843 682.312C499.563 682.96 500.439 683.284 501.471 683.284C503.007 683.284 504.075 682.636 504.675 681.34H511.227C510.891 682.66 510.279 683.848 509.391 684.904C508.527 685.96 507.435 686.788 506.115 687.388C504.795 687.988 503.319 688.288 501.687 688.288C499.719 688.288 497.967 687.868 496.431 687.028C494.895 686.188 493.695 684.988 492.831 683.428C491.967 681.868 491.535 680.044 491.535 677.956C491.535 675.868 491.955 674.044 492.795 672.484C493.659 670.924 494.859 669.724 496.395 668.884C497.931 668.044 499.695 667.624 501.687 667.624C503.631 667.624 505.359 668.032 506.871 668.848C508.383 669.664 509.559 670.828 510.399 672.34C511.263 673.852 511.695 675.616 511.695 677.632ZM505.395 676.012C505.395 674.956 505.035 674.116 504.315 673.492C503.595 672.868 502.695 672.556 501.615 672.556C500.583 672.556 499.707 672.856 498.987 673.456C498.291 674.056 497.859 674.908 497.691 676.012H505.395ZM521.567 682.312L517.571 692.644H513.647L515.735 682.312H521.567ZM57.964 737.536H48.532L47.02 742H40.576L49.72 716.728H56.848L65.992 742H59.476L57.964 737.536ZM56.38 732.784L53.248 723.532L50.152 732.784H56.38ZM81.015 721.696C83.367 721.696 85.239 722.464 86.631 724C88.047 725.512 88.755 727.6 88.755 730.264V742H82.635V731.092C82.635 729.748 82.287 728.704 81.591 727.96C80.895 727.216 79.959 726.844 78.783 726.844C77.607 726.844 76.671 727.216 75.975 727.96C75.279 728.704 74.931 729.748 74.931 731.092V742H68.775V721.912H74.931V724.576C75.555 723.688 76.395 722.992 77.451 722.488C78.507 721.96 79.695 721.696 81.015 721.696ZM113.553 721.912L100.953 751.54H94.3288L98.9368 741.316L90.7648 721.912H97.6408L102.285 734.476L106.893 721.912H113.553ZM144.615 721.912L139.179 742H132.375L129.207 728.968L125.931 742H119.163L113.691 721.912H119.847L122.691 736.276L126.075 721.912H132.591L136.011 736.204L138.819 721.912H144.615ZM159.31 721.696C161.614 721.696 163.462 722.464 164.854 724C166.246 725.512 166.942 727.6 166.942 730.264V742H160.822V731.092C160.822 729.748 160.474 728.704 159.778 727.96C159.082 727.216 158.146 726.844 156.97 726.844C155.794 726.844 154.858 727.216 154.162 727.96C153.466 728.704 153.118 729.748 153.118 731.092V742H146.962V715.36H153.118V724.612C153.742 723.724 154.594 723.016 155.674 722.488C156.754 721.96 157.966 721.696 159.31 721.696ZM190.156 731.632C190.156 732.208 190.12 732.808 190.048 733.432H176.116C176.212 734.68 176.608 735.64 177.304 736.312C178.024 736.96 178.9 737.284 179.932 737.284C181.468 737.284 182.536 736.636 183.136 735.34H189.688C189.352 736.66 188.74 737.848 187.852 738.904C186.988 739.96 185.896 740.788 184.576 741.388C183.256 741.988 181.78 742.288 180.148 742.288C178.18 742.288 176.428 741.868 174.892 741.028C173.356 740.188 172.156 738.988 171.292 737.428C170.428 735.868 169.996 734.044 169.996 731.956C169.996 729.868 170.416 728.044 171.256 726.484C172.12 724.924 173.32 723.724 174.856 722.884C176.392 722.044 178.156 721.624 180.148 721.624C182.092 721.624 183.82 722.032 185.332 722.848C186.844 723.664 188.02 724.828 188.86 726.34C189.724 727.852 190.156 729.616 190.156 731.632ZM183.856 730.012C183.856 728.956 183.496 728.116 182.776 727.492C182.056 726.868 181.156 726.556 180.076 726.556C179.044 726.556 178.168 726.856 177.448 727.456C176.752 728.056 176.32 728.908 176.152 730.012H183.856ZM199.56 725.26C200.28 724.156 201.18 723.292 202.26 722.668C203.34 722.02 204.54 721.696 205.86 721.696V728.212H204.168C202.632 728.212 201.48 728.548 200.712 729.22C199.944 729.868 199.56 731.02 199.56 732.676V742H193.404V721.912H199.56V725.26ZM227.738 731.632C227.738 732.208 227.702 732.808 227.63 733.432H213.698C213.794 734.68 214.19 735.64 214.886 736.312C215.606 736.96 216.482 737.284 217.514 737.284C219.05 737.284 220.118 736.636 220.718 735.34H227.27C226.934 736.66 226.322 737.848 225.434 738.904C224.57 739.96 223.478 740.788 222.158 741.388C220.838 741.988 219.362 742.288 217.73 742.288C215.762 742.288 214.01 741.868 212.474 741.028C210.938 740.188 209.738 738.988 208.874 737.428C208.01 735.868 207.578 734.044 207.578 731.956C207.578 729.868 207.998 728.044 208.838 726.484C209.702 724.924 210.902 723.724 212.438 722.884C213.974 722.044 215.738 721.624 217.73 721.624C219.674 721.624 221.402 722.032 222.914 722.848C224.426 723.664 225.602 724.828 226.442 726.34C227.306 727.852 227.738 729.616 227.738 731.632ZM221.438 730.012C221.438 728.956 221.078 728.116 220.358 727.492C219.638 726.868 218.738 726.556 217.658 726.556C216.626 726.556 215.75 726.856 215.03 727.456C214.334 728.056 213.902 728.908 213.734 730.012H221.438ZM233.866 742.288C232.786 742.288 231.898 741.976 231.202 741.352C230.53 740.704 230.194 739.912 230.194 738.976C230.194 738.016 230.53 737.212 231.202 736.564C231.898 735.916 232.786 735.592 233.866 735.592C234.922 735.592 235.786 735.916 236.458 736.564C237.154 737.212 237.502 738.016 237.502 738.976C237.502 739.912 237.154 740.704 236.458 741.352C235.786 741.976 234.922 742.288 233.866 742.288Z" fill="#027FFF"/>
<circle cx="49.1855" cy="117.312" r="3.68772" fill="#FF8E25"/>
<circle cx="74.9995" cy="117.312" r="3.68772" fill="#FF8E25"/>
<circle cx="62.0924" cy="112.702" r="3.68772" fill="#FF8E25"/>
<rect x="39.0442" y="97.4904" width="44.7136" height="9.21931" rx="4.60965" fill="#027FFF"/>
<rect x="41.5353" y="88.4646" width="27.7318" height="5.07062" rx="2.53531" transform="rotate(30 41.5353 88.4646)" fill="#027FFF"/>
<rect width="27.7318" height="5.07062" rx="2.53531" transform="matrix(-0.866025 0.5 0.5 0.866025 81.9602 88.4646)" fill="#027FFF"/>
<rect x="84.4514" y="132.536" width="44.7136" height="9.21931" rx="4.60965" transform="rotate(-180 84.4514 132.536)" fill="#027FFF"/>
<rect x="81.9602" y="141.562" width="27.7318" height="5.07062" rx="2.53531" transform="rotate(-150 81.9602 141.562)" fill="#027FFF"/>
<rect width="27.7318" height="5.07062" rx="2.53531" transform="matrix(0.866025 -0.5 -0.5 -0.866025 41.5353 141.562)" fill="#027FFF"/>
<path d="M90.8155 114.92C90.8155 112.147 91.4155 109.68 92.6155 107.52C93.8155 105.333 95.4822 103.64 97.6155 102.44C99.7755 101.213 102.216 100.6 104.936 100.6C108.269 100.6 111.122 101.48 113.496 103.24C115.869 105 117.456 107.4 118.256 110.44H110.736C110.176 109.267 109.376 108.373 108.336 107.76C107.322 107.147 106.162 106.84 104.856 106.84C102.749 106.84 101.042 107.573 99.7355 109.04C98.4289 110.507 97.7755 112.467 97.7755 114.92C97.7755 117.373 98.4289 119.333 99.7355 120.8C101.042 122.267 102.749 123 104.856 123C106.162 123 107.322 122.693 108.336 122.08C109.376 121.467 110.176 120.573 110.736 119.4H118.256C117.456 122.44 115.869 124.84 113.496 126.6C111.122 128.333 108.269 129.2 104.936 129.2C102.216 129.2 99.7755 128.6 97.6155 127.4C95.4822 126.173 93.8155 124.48 92.6155 122.32C91.4155 120.16 90.8155 117.693 90.8155 114.92ZM136.164 106.44C138.724 106.44 140.778 107.293 142.324 109C143.871 110.68 144.644 113 144.644 115.96V129H137.844V116.88C137.844 115.387 137.458 114.227 136.684 113.4C135.911 112.573 134.871 112.16 133.564 112.16C132.258 112.16 131.218 112.573 130.444 113.4C129.671 114.227 129.284 115.387 129.284 116.88V129H122.444V99.4H129.284V109.68C129.978 108.693 130.924 107.907 132.124 107.32C133.324 106.733 134.671 106.44 136.164 106.44ZM148.037 117.8C148.037 115.507 148.464 113.493 149.317 111.76C150.197 110.027 151.384 108.693 152.877 107.76C154.371 106.827 156.037 106.36 157.877 106.36C159.451 106.36 160.824 106.68 161.997 107.32C163.197 107.96 164.117 108.8 164.757 109.84V106.68H171.597V129H164.757V125.84C164.091 126.88 163.157 127.72 161.957 128.36C160.784 129 159.411 129.32 157.837 129.32C156.024 129.32 154.371 128.853 152.877 127.92C151.384 126.96 150.197 125.613 149.317 123.88C148.464 122.12 148.037 120.093 148.037 117.8ZM164.757 117.84C164.757 116.133 164.277 114.787 163.317 113.8C162.384 112.813 161.237 112.32 159.877 112.32C158.517 112.32 157.357 112.813 156.397 113.8C155.464 114.76 154.997 116.093 154.997 117.8C154.997 119.507 155.464 120.867 156.397 121.88C157.357 122.867 158.517 123.36 159.877 123.36C161.237 123.36 162.384 122.867 163.317 121.88C164.277 120.893 164.757 119.547 164.757 117.84ZM188.986 123.2V129H185.506C183.026 129 181.093 128.4 179.706 127.2C178.319 125.973 177.626 123.987 177.626 121.24V112.36H174.906V106.68H177.626V101.24H184.466V106.68H188.946V112.36H184.466V121.32C184.466 121.987 184.626 122.467 184.946 122.76C185.266 123.053 185.799 123.2 186.546 123.2H188.986Z" fill="#027FFF"/>
<path d="M212.996 100.92V106.4H205.556V129H198.716V106.4H191.276V100.92H212.996ZM219.869 104.36C218.669 104.36 217.682 104.013 216.909 103.32C216.162 102.6 215.789 101.72 215.789 100.68C215.789 99.6133 216.162 98.7333 216.909 98.04C217.682 97.32 218.669 96.96 219.869 96.96C221.042 96.96 222.002 97.32 222.749 98.04C223.522 98.7333 223.909 99.6133 223.909 100.68C223.909 101.72 223.522 102.6 222.749 103.32C222.002 104.013 221.042 104.36 219.869 104.36ZM223.269 106.68V129H216.429V106.68H223.269ZM256.706 106.44C259.479 106.44 261.679 107.28 263.306 108.96C264.959 110.64 265.786 112.973 265.786 115.96V129H258.986V116.88C258.986 115.44 258.599 114.333 257.826 113.56C257.079 112.76 256.039 112.36 254.706 112.36C253.372 112.36 252.319 112.76 251.546 113.56C250.799 114.333 250.426 115.44 250.426 116.88V129H243.626V116.88C243.626 115.44 243.239 114.333 242.466 113.56C241.719 112.76 240.679 112.36 239.346 112.36C238.012 112.36 236.959 112.76 236.186 113.56C235.439 114.333 235.066 115.44 235.066 116.88V129H228.226V106.68H235.066V109.48C235.759 108.547 236.666 107.813 237.786 107.28C238.906 106.72 240.172 106.44 241.586 106.44C243.266 106.44 244.759 106.8 246.066 107.52C247.399 108.24 248.439 109.267 249.186 110.6C249.959 109.373 251.012 108.373 252.346 107.6C253.679 106.827 255.132 106.44 256.706 106.44ZM291.609 117.48C291.609 118.12 291.569 118.787 291.489 119.48H276.009C276.116 120.867 276.556 121.933 277.329 122.68C278.129 123.4 279.103 123.76 280.249 123.76C281.956 123.76 283.143 123.04 283.809 121.6H291.089C290.716 123.067 290.036 124.387 289.049 125.56C288.089 126.733 286.876 127.653 285.409 128.32C283.943 128.987 282.303 129.32 280.489 129.32C278.303 129.32 276.356 128.853 274.649 127.92C272.943 126.987 271.609 125.653 270.649 123.92C269.689 122.187 269.209 120.16 269.209 117.84C269.209 115.52 269.676 113.493 270.609 111.76C271.569 110.027 272.903 108.693 274.609 107.76C276.316 106.827 278.276 106.36 280.489 106.36C282.649 106.36 284.569 106.813 286.249 107.72C287.929 108.627 289.236 109.92 290.169 111.6C291.129 113.28 291.609 115.24 291.609 117.48ZM284.609 115.68C284.609 114.507 284.209 113.573 283.409 112.88C282.609 112.187 281.609 111.84 280.409 111.84C279.263 111.84 278.289 112.173 277.489 112.84C276.716 113.507 276.236 114.453 276.049 115.68H284.609Z" fill="#FF8E25"/>
<path d="M45.032 777.048V782.64H51.128V784.44H45.032V790.2H51.848V792H42.848V775.248H51.848V777.048H45.032ZM62.0167 792L58.8967 787.104L55.8967 792H53.6167L57.8647 785.472L53.6167 778.848H56.0887L59.2087 783.72L62.1847 778.848H64.4647L60.2407 785.352L64.4887 792H62.0167ZM68.8211 781.272C69.2531 780.52 69.8931 779.896 70.7411 779.4C71.6051 778.888 72.6051 778.632 73.7411 778.632C74.9091 778.632 75.9651 778.912 76.9091 779.472C77.8691 780.032 78.6211 780.824 79.1651 781.848C79.7091 782.856 79.9811 784.032 79.9811 785.376C79.9811 786.704 79.7091 787.888 79.1651 788.928C78.6211 789.968 77.8691 790.776 76.9091 791.352C75.9651 791.928 74.9091 792.216 73.7411 792.216C72.6211 792.216 71.6291 791.968 70.7651 791.472C69.9171 790.96 69.2691 790.328 68.8211 789.576V798.24H66.6371V778.848H68.8211V781.272ZM77.7491 785.376C77.7491 784.384 77.5491 783.52 77.1491 782.784C76.7491 782.048 76.2051 781.488 75.5171 781.104C74.8451 780.72 74.1011 780.528 73.2851 780.528C72.4851 780.528 71.7411 780.728 71.0531 781.128C70.3811 781.512 69.8371 782.08 69.4211 782.832C69.0211 783.568 68.8211 784.424 68.8211 785.4C68.8211 786.392 69.0211 787.264 69.4211 788.016C69.8371 788.752 70.3811 789.32 71.0531 789.72C71.7411 790.104 72.4851 790.296 73.2851 790.296C74.1011 790.296 74.8451 790.104 75.5171 789.72C76.2051 789.32 76.7491 788.752 77.1491 788.016C77.5491 787.264 77.7491 786.384 77.7491 785.376ZM94.8558 784.92C94.8558 785.336 94.8318 785.776 94.7838 786.24H84.2718C84.3518 787.536 84.7918 788.552 85.5918 789.288C86.4078 790.008 87.3918 790.368 88.5438 790.368C89.4878 790.368 90.2718 790.152 90.8958 789.72C91.5358 789.272 91.9838 788.68 92.2398 787.944H94.5918C94.2398 789.208 93.5358 790.24 92.4798 791.04C91.4238 791.824 90.1118 792.216 88.5438 792.216C87.2958 792.216 86.1758 791.936 85.1838 791.376C84.2078 790.816 83.4398 790.024 82.8798 789C82.3198 787.96 82.0398 786.76 82.0398 785.4C82.0398 784.04 82.3118 782.848 82.8558 781.824C83.3998 780.8 84.1598 780.016 85.1358 779.472C86.1278 778.912 87.2638 778.632 88.5438 778.632C89.7918 778.632 90.8958 778.904 91.8558 779.448C92.8158 779.992 93.5518 780.744 94.0638 781.704C94.5918 782.648 94.8558 783.72 94.8558 784.92ZM92.5998 784.464C92.5998 783.632 92.4158 782.92 92.0478 782.328C91.6798 781.72 91.1758 781.264 90.5358 780.96C89.9118 780.64 89.2158 780.48 88.4478 780.48C87.3438 780.48 86.3998 780.832 85.6158 781.536C84.8478 782.24 84.4078 783.216 84.2958 784.464H92.5998ZM99.9226 780.984C100.307 780.232 100.851 779.648 101.555 779.232C102.275 778.816 103.147 778.608 104.171 778.608V780.864H103.595C101.147 780.864 99.9226 782.192 99.9226 784.848V792H97.7386V778.848H99.9226V780.984ZM107.82 776.712C107.404 776.712 107.052 776.568 106.764 776.28C106.476 775.992 106.332 775.64 106.332 775.224C106.332 774.808 106.476 774.456 106.764 774.168C107.052 773.88 107.404 773.736 107.82 773.736C108.22 773.736 108.556 773.88 108.828 774.168C109.116 774.456 109.26 774.808 109.26 775.224C109.26 775.64 109.116 775.992 108.828 776.28C108.556 776.568 108.22 776.712 107.82 776.712ZM108.876 778.848V792H106.692V778.848H108.876ZM124.598 784.92C124.598 785.336 124.574 785.776 124.526 786.24H114.014C114.094 787.536 114.534 788.552 115.334 789.288C116.15 790.008 117.134 790.368 118.286 790.368C119.23 790.368 120.014 790.152 120.638 789.72C121.278 789.272 121.726 788.68 121.982 787.944H124.334C123.982 789.208 123.278 790.24 122.222 791.04C121.166 791.824 119.854 792.216 118.286 792.216C117.038 792.216 115.918 791.936 114.926 791.376C113.95 790.816 113.182 790.024 112.622 789C112.062 787.96 111.782 786.76 111.782 785.4C111.782 784.04 112.054 782.848 112.598 781.824C113.142 780.8 113.902 780.016 114.878 779.472C115.87 778.912 117.006 778.632 118.286 778.632C119.534 778.632 120.638 778.904 121.598 779.448C122.558 779.992 123.294 780.744 123.806 781.704C124.334 782.648 124.598 783.72 124.598 784.92ZM122.342 784.464C122.342 783.632 122.158 782.92 121.79 782.328C121.422 781.72 120.918 781.264 120.278 780.96C119.654 780.64 118.958 780.48 118.19 780.48C117.086 780.48 116.142 780.832 115.358 781.536C114.59 782.24 114.15 783.216 114.038 784.464H122.342ZM133.889 778.608C135.489 778.608 136.785 779.096 137.777 780.072C138.769 781.032 139.265 782.424 139.265 784.248V792H137.105V784.56C137.105 783.248 136.777 782.248 136.121 781.56C135.465 780.856 134.569 780.504 133.433 780.504C132.281 780.504 131.361 780.864 130.673 781.584C130.001 782.304 129.665 783.352 129.665 784.728V792H127.481V778.848H129.665V780.72C130.097 780.048 130.681 779.528 131.417 779.16C132.169 778.792 132.993 778.608 133.889 778.608ZM142.016 785.4C142.016 784.04 142.288 782.856 142.832 781.848C143.376 780.824 144.128 780.032 145.088 779.472C146.064 778.912 147.176 778.632 148.424 778.632C150.04 778.632 151.368 779.024 152.408 779.808C153.464 780.592 154.16 781.68 154.496 783.072H152.144C151.92 782.272 151.48 781.64 150.824 781.176C150.184 780.712 149.384 780.48 148.424 780.48C147.176 780.48 146.168 780.912 145.4 781.776C144.632 782.624 144.248 783.832 144.248 785.4C144.248 786.984 144.632 788.208 145.4 789.072C146.168 789.936 147.176 790.368 148.424 790.368C149.384 790.368 150.184 790.144 150.824 789.696C151.464 789.248 151.904 788.608 152.144 787.776H154.496C154.144 789.12 153.44 790.2 152.384 791.016C151.328 791.816 150.008 792.216 148.424 792.216C147.176 792.216 146.064 791.936 145.088 791.376C144.128 790.816 143.376 790.024 142.832 789C142.288 787.976 142.016 786.776 142.016 785.4ZM169.411 784.92C169.411 785.336 169.387 785.776 169.339 786.24H158.827C158.907 787.536 159.347 788.552 160.147 789.288C160.963 790.008 161.947 790.368 163.099 790.368C164.043 790.368 164.827 790.152 165.451 789.72C166.091 789.272 166.539 788.68 166.795 787.944H169.147C168.795 789.208 168.091 790.24 167.035 791.04C165.979 791.824 164.667 792.216 163.099 792.216C161.851 792.216 160.731 791.936 159.739 791.376C158.763 790.816 157.995 790.024 157.435 789C156.875 787.96 156.595 786.76 156.595 785.4C156.595 784.04 156.867 782.848 157.411 781.824C157.955 780.8 158.715 780.016 159.691 779.472C160.683 778.912 161.819 778.632 163.099 778.632C164.347 778.632 165.451 778.904 166.411 779.448C167.371 779.992 168.107 780.744 168.619 781.704C169.147 782.648 169.411 783.72 169.411 784.92ZM167.155 784.464C167.155 783.632 166.971 782.92 166.603 782.328C166.235 781.72 165.731 781.264 165.091 780.96C164.467 780.64 163.771 780.48 163.003 780.48C161.899 780.48 160.955 780.832 160.171 781.536C159.403 782.24 158.963 783.216 158.851 784.464H167.155ZM183.348 792.216C182.34 792.216 181.436 792.048 180.636 791.712C179.836 791.36 179.204 790.88 178.74 790.272C178.276 789.648 178.02 788.936 177.972 788.136H180.228C180.292 788.792 180.596 789.328 181.14 789.744C181.7 790.16 182.428 790.368 183.324 790.368C184.156 790.368 184.812 790.184 185.292 789.816C185.772 789.448 186.012 788.984 186.012 788.424C186.012 787.848 185.756 787.424 185.244 787.152C184.732 786.864 183.94 786.584 182.868 786.312C181.892 786.056 181.092 785.8 180.468 785.544C179.86 785.272 179.332 784.88 178.884 784.368C178.452 783.84 178.236 783.152 178.236 782.304C178.236 781.632 178.436 781.016 178.836 780.456C179.236 779.896 179.804 779.456 180.54 779.136C181.276 778.8 182.116 778.632 183.06 778.632C184.516 778.632 185.692 779 186.588 779.736C187.484 780.472 187.964 781.48 188.028 782.76H185.844C185.796 782.072 185.516 781.52 185.004 781.104C184.508 780.688 183.836 780.48 182.988 780.48C182.204 780.48 181.58 780.648 181.116 780.984C180.652 781.32 180.42 781.76 180.42 782.304C180.42 782.736 180.556 783.096 180.828 783.384C181.116 783.656 181.468 783.88 181.884 784.056C182.316 784.216 182.908 784.4 183.66 784.608C184.604 784.864 185.372 785.12 185.964 785.376C186.556 785.616 187.06 785.984 187.476 786.48C187.908 786.976 188.132 787.624 188.148 788.424C188.148 789.144 187.948 789.792 187.548 790.368C187.148 790.944 186.58 791.4 185.844 791.736C185.124 792.056 184.292 792.216 183.348 792.216ZM203.231 784.92C203.231 785.336 203.207 785.776 203.159 786.24H192.647C192.727 787.536 193.167 788.552 193.967 789.288C194.783 790.008 195.767 790.368 196.919 790.368C197.863 790.368 198.647 790.152 199.271 789.72C199.911 789.272 200.359 788.68 200.615 787.944H202.967C202.615 789.208 201.911 790.24 200.855 791.04C199.799 791.824 198.487 792.216 196.919 792.216C195.671 792.216 194.551 791.936 193.559 791.376C192.583 790.816 191.815 790.024 191.255 789C190.695 787.96 190.415 786.76 190.415 785.4C190.415 784.04 190.687 782.848 191.231 781.824C191.775 780.8 192.535 780.016 193.511 779.472C194.503 778.912 195.639 778.632 196.919 778.632C198.167 778.632 199.271 778.904 200.231 779.448C201.191 779.992 201.927 780.744 202.439 781.704C202.967 782.648 203.231 783.72 203.231 784.92ZM200.975 784.464C200.975 783.632 200.791 782.92 200.423 782.328C200.055 781.72 199.551 781.264 198.911 780.96C198.287 780.64 197.591 780.48 196.823 780.48C195.719 780.48 194.775 780.832 193.991 781.536C193.223 782.24 192.783 783.216 192.671 784.464H200.975ZM205.298 785.376C205.298 784.032 205.57 782.856 206.114 781.848C206.658 780.824 207.402 780.032 208.346 779.472C209.306 778.912 210.37 778.632 211.538 778.632C212.69 778.632 213.69 778.88 214.538 779.376C215.386 779.872 216.018 780.496 216.434 781.248V778.848H218.642V792H216.434V789.552C216.002 790.32 215.354 790.96 214.49 791.472C213.642 791.968 212.65 792.216 211.514 792.216C210.346 792.216 209.29 791.928 208.346 791.352C207.402 790.776 206.658 789.968 206.114 788.928C205.57 787.888 205.298 786.704 205.298 785.376ZM216.434 785.4C216.434 784.408 216.234 783.544 215.834 782.808C215.434 782.072 214.89 781.512 214.202 781.128C213.53 780.728 212.786 780.528 211.97 780.528C211.154 780.528 210.41 780.72 209.738 781.104C209.066 781.488 208.53 782.048 208.13 782.784C207.73 783.52 207.53 784.384 207.53 785.376C207.53 786.384 207.73 787.264 208.13 788.016C208.53 788.752 209.066 789.32 209.738 789.72C210.41 790.104 211.154 790.296 211.97 790.296C212.786 790.296 213.53 790.104 214.202 789.72C214.89 789.32 215.434 788.752 215.834 788.016C216.234 787.264 216.434 786.392 216.434 785.4ZM238.148 778.608C239.172 778.608 240.084 778.824 240.884 779.256C241.684 779.672 242.316 780.304 242.78 781.152C243.244 782 243.476 783.032 243.476 784.248V792H241.316V784.56C241.316 783.248 240.988 782.248 240.332 781.56C239.692 780.856 238.82 780.504 237.716 780.504C236.58 780.504 235.676 780.872 235.004 781.608C234.332 782.328 233.996 783.376 233.996 784.752V792H231.836V784.56C231.836 783.248 231.508 782.248 230.852 781.56C230.212 780.856 229.34 780.504 228.236 780.504C227.1 780.504 226.196 780.872 225.524 781.608C224.852 782.328 224.516 783.376 224.516 784.752V792H222.332V778.848H224.516V780.744C224.948 780.056 225.524 779.528 226.244 779.16C226.98 778.792 227.788 778.608 228.668 778.608C229.772 778.608 230.748 778.856 231.596 779.352C232.444 779.848 233.076 780.576 233.492 781.536C233.86 780.608 234.468 779.888 235.316 779.376C236.164 778.864 237.108 778.608 238.148 778.608ZM249.243 774.24V792H247.059V774.24H249.243ZM264.965 784.92C264.965 785.336 264.941 785.776 264.893 786.24H254.381C254.461 787.536 254.901 788.552 255.701 789.288C256.517 790.008 257.501 790.368 258.653 790.368C259.597 790.368 260.381 790.152 261.005 789.72C261.645 789.272 262.093 788.68 262.349 787.944H264.701C264.349 789.208 263.645 790.24 262.589 791.04C261.533 791.824 260.221 792.216 258.653 792.216C257.405 792.216 256.285 791.936 255.293 791.376C254.317 790.816 253.549 790.024 252.989 789C252.429 787.96 252.149 786.76 252.149 785.4C252.149 784.04 252.421 782.848 252.965 781.824C253.509 780.8 254.269 780.016 255.245 779.472C256.237 778.912 257.373 778.632 258.653 778.632C259.901 778.632 261.005 778.904 261.965 779.448C262.925 779.992 263.661 780.744 264.173 781.704C264.701 782.648 264.965 783.72 264.965 784.92ZM262.709 784.464C262.709 783.632 262.525 782.92 262.157 782.328C261.789 781.72 261.285 781.264 260.645 780.96C260.021 780.64 259.325 780.48 258.557 780.48C257.453 780.48 256.509 780.832 255.725 781.536C254.957 782.24 254.517 783.216 254.405 784.464H262.709ZM272.504 792.216C271.496 792.216 270.592 792.048 269.792 791.712C268.992 791.36 268.36 790.88 267.896 790.272C267.432 789.648 267.176 788.936 267.128 788.136H269.384C269.448 788.792 269.752 789.328 270.296 789.744C270.856 790.16 271.584 790.368 272.48 790.368C273.312 790.368 273.968 790.184 274.448 789.816C274.928 789.448 275.168 788.984 275.168 788.424C275.168 787.848 274.912 787.424 274.4 787.152C273.888 786.864 273.096 786.584 272.024 786.312C271.048 786.056 270.248 785.8 269.624 785.544C269.016 785.272 268.488 784.88 268.04 784.368C267.608 783.84 267.392 783.152 267.392 782.304C267.392 781.632 267.592 781.016 267.992 780.456C268.392 779.896 268.96 779.456 269.696 779.136C270.432 778.8 271.272 778.632 272.216 778.632C273.672 778.632 274.848 779 275.744 779.736C276.64 780.472 277.12 781.48 277.184 782.76H275C274.952 782.072 274.672 781.52 274.16 781.104C273.664 780.688 272.992 780.48 272.144 780.48C271.36 780.48 270.736 780.648 270.272 780.984C269.808 781.32 269.576 781.76 269.576 782.304C269.576 782.736 269.712 783.096 269.984 783.384C270.272 783.656 270.624 783.88 271.04 784.056C271.472 784.216 272.064 784.4 272.816 784.608C273.76 784.864 274.528 785.12 275.12 785.376C275.712 785.616 276.216 785.984 276.632 786.48C277.064 786.976 277.288 787.624 277.304 788.424C277.304 789.144 277.104 789.792 276.704 790.368C276.304 790.944 275.736 791.4 275 791.736C274.28 792.056 273.448 792.216 272.504 792.216ZM285.043 792.216C284.035 792.216 283.131 792.048 282.331 791.712C281.531 791.36 280.899 790.88 280.435 790.272C279.971 789.648 279.715 788.936 279.667 788.136H281.923C281.987 788.792 282.291 789.328 282.835 789.744C283.395 790.16 284.123 790.368 285.019 790.368C285.851 790.368 286.507 790.184 286.987 789.816C287.467 789.448 287.707 788.984 287.707 788.424C287.707 787.848 287.451 787.424 286.939 787.152C286.427 786.864 285.635 786.584 284.563 786.312C283.587 786.056 282.787 785.8 282.163 785.544C281.555 785.272 281.027 784.88 280.579 784.368C280.147 783.84 279.931 783.152 279.931 782.304C279.931 781.632 280.131 781.016 280.531 780.456C280.931 779.896 281.499 779.456 282.235 779.136C282.971 778.8 283.811 778.632 284.755 778.632C286.211 778.632 287.387 779 288.283 779.736C289.179 780.472 289.659 781.48 289.723 782.76H287.539C287.491 782.072 287.211 781.52 286.699 781.104C286.203 780.688 285.531 780.48 284.683 780.48C283.899 780.48 283.275 780.648 282.811 780.984C282.347 781.32 282.115 781.76 282.115 782.304C282.115 782.736 282.251 783.096 282.523 783.384C282.811 783.656 283.163 783.88 283.579 784.056C284.011 784.216 284.603 784.4 285.355 784.608C286.299 784.864 287.067 785.12 287.659 785.376C288.251 785.616 288.755 785.984 289.171 786.48C289.603 786.976 289.827 787.624 289.843 788.424C289.843 789.144 289.643 789.792 289.243 790.368C288.843 790.944 288.275 791.4 287.539 791.736C286.819 792.056 285.987 792.216 285.043 792.216ZM298.509 785.376C298.509 784.032 298.781 782.856 299.325 781.848C299.869 780.824 300.613 780.032 301.557 779.472C302.517 778.912 303.581 778.632 304.749 778.632C305.901 778.632 306.901 778.88 307.749 779.376C308.597 779.872 309.229 780.496 309.645 781.248V778.848H311.853V792H309.645V789.552C309.213 790.32 308.565 790.96 307.701 791.472C306.853 791.968 305.861 792.216 304.725 792.216C303.557 792.216 302.501 791.928 301.557 791.352C300.613 790.776 299.869 789.968 299.325 788.928C298.781 787.888 298.509 786.704 298.509 785.376ZM309.645 785.4C309.645 784.408 309.445 783.544 309.045 782.808C308.645 782.072 308.101 781.512 307.413 781.128C306.741 780.728 305.997 780.528 305.181 780.528C304.365 780.528 303.621 780.72 302.949 781.104C302.277 781.488 301.741 782.048 301.341 782.784C300.941 783.52 300.741 784.384 300.741 785.376C300.741 786.384 300.941 787.264 301.341 788.016C301.741 788.752 302.277 789.32 302.949 789.72C303.621 790.104 304.365 790.296 305.181 790.296C305.997 790.296 306.741 790.104 307.413 789.72C308.101 789.32 308.645 788.752 309.045 788.016C309.445 787.264 309.645 786.392 309.645 785.4ZM321.951 778.608C323.551 778.608 324.847 779.096 325.839 780.072C326.831 781.032 327.327 782.424 327.327 784.248V792H325.167V784.56C325.167 783.248 324.839 782.248 324.183 781.56C323.527 780.856 322.631 780.504 321.495 780.504C320.343 780.504 319.423 780.864 318.735 781.584C318.063 782.304 317.727 783.352 317.727 784.728V792H315.543V778.848H317.727V780.72C318.159 780.048 318.743 779.528 319.479 779.16C320.231 778.792 321.055 778.608 321.951 778.608ZM330.079 785.376C330.079 784.032 330.351 782.856 330.895 781.848C331.439 780.824 332.183 780.032 333.127 779.472C334.087 778.912 335.159 778.632 336.343 778.632C337.367 778.632 338.319 778.872 339.199 779.352C340.079 779.816 340.751 780.432 341.215 781.2V774.24H343.423V792H341.215V789.528C340.783 790.312 340.143 790.96 339.295 791.472C338.447 791.968 337.455 792.216 336.319 792.216C335.151 792.216 334.087 791.928 333.127 791.352C332.183 790.776 331.439 789.968 330.895 788.928C330.351 787.888 330.079 786.704 330.079 785.376ZM341.215 785.4C341.215 784.408 341.015 783.544 340.615 782.808C340.215 782.072 339.671 781.512 338.983 781.128C338.311 780.728 337.567 780.528 336.751 780.528C335.935 780.528 335.191 780.72 334.519 781.104C333.847 781.488 333.311 782.048 332.911 782.784C332.511 783.52 332.311 784.384 332.311 785.376C332.311 786.384 332.511 787.264 332.911 788.016C333.311 788.752 333.847 789.32 334.519 789.72C335.191 790.104 335.935 790.296 336.751 790.296C337.567 790.296 338.311 790.104 338.983 789.72C339.671 789.32 340.215 788.752 340.615 788.016C341.015 787.264 341.215 786.392 341.215 785.4ZM354.64 776.712C354.224 776.712 353.872 776.568 353.584 776.28C353.296 775.992 353.152 775.64 353.152 775.224C353.152 774.808 353.296 774.456 353.584 774.168C353.872 773.88 354.224 773.736 354.64 773.736C355.04 773.736 355.376 773.88 355.648 774.168C355.936 774.456 356.08 774.808 356.08 775.224C356.08 775.64 355.936 775.992 355.648 776.28C355.376 776.568 355.04 776.712 354.64 776.712ZM355.696 778.848V792H353.512V778.848H355.696ZM365.826 778.608C367.426 778.608 368.722 779.096 369.714 780.072C370.706 781.032 371.202 782.424 371.202 784.248V792H369.042V784.56C369.042 783.248 368.714 782.248 368.058 781.56C367.402 780.856 366.506 780.504 365.37 780.504C364.218 780.504 363.298 780.864 362.61 781.584C361.938 782.304 361.602 783.352 361.602 784.728V792H359.418V778.848H361.602V780.72C362.034 780.048 362.618 779.528 363.354 779.16C364.106 778.792 364.93 778.608 365.826 778.608ZM379.426 792.216C378.418 792.216 377.514 792.048 376.714 791.712C375.914 791.36 375.282 790.88 374.818 790.272C374.354 789.648 374.098 788.936 374.05 788.136H376.306C376.37 788.792 376.674 789.328 377.218 789.744C377.778 790.16 378.506 790.368 379.402 790.368C380.234 790.368 380.89 790.184 381.37 789.816C381.85 789.448 382.09 788.984 382.09 788.424C382.09 787.848 381.834 787.424 381.322 787.152C380.81 786.864 380.018 786.584 378.946 786.312C377.97 786.056 377.17 785.8 376.546 785.544C375.938 785.272 375.41 784.88 374.962 784.368C374.53 783.84 374.314 783.152 374.314 782.304C374.314 781.632 374.514 781.016 374.914 780.456C375.314 779.896 375.882 779.456 376.618 779.136C377.354 778.8 378.194 778.632 379.138 778.632C380.594 778.632 381.77 779 382.666 779.736C383.562 780.472 384.042 781.48 384.106 782.76H381.922C381.874 782.072 381.594 781.52 381.082 781.104C380.586 780.688 379.914 780.48 379.066 780.48C378.282 780.48 377.658 780.648 377.194 780.984C376.73 781.32 376.498 781.76 376.498 782.304C376.498 782.736 376.634 783.096 376.906 783.384C377.194 783.656 377.546 783.88 377.962 784.056C378.394 784.216 378.986 784.4 379.738 784.608C380.682 784.864 381.45 785.12 382.042 785.376C382.634 785.616 383.138 785.984 383.554 786.48C383.986 786.976 384.21 787.624 384.226 788.424C384.226 789.144 384.026 789.792 383.626 790.368C383.226 790.944 382.658 791.4 381.922 791.736C381.202 792.056 380.37 792.216 379.426 792.216ZM389.973 780.648V788.4C389.973 789.04 390.109 789.496 390.381 789.768C390.653 790.024 391.125 790.152 391.797 790.152H393.405V792H391.437C390.221 792 389.309 791.72 388.701 791.16C388.093 790.6 387.789 789.68 387.789 788.4V780.648H386.085V778.848H387.789V775.536H389.973V778.848H393.405V780.648H389.973ZM395.235 785.376C395.235 784.032 395.507 782.856 396.051 781.848C396.595 780.824 397.339 780.032 398.283 779.472C399.243 778.912 400.307 778.632 401.475 778.632C402.627 778.632 403.627 778.88 404.475 779.376C405.323 779.872 405.955 780.496 406.371 781.248V778.848H408.579V792H406.371V789.552C405.939 790.32 405.291 790.96 404.427 791.472C403.579 791.968 402.587 792.216 401.451 792.216C400.283 792.216 399.227 791.928 398.283 791.352C397.339 790.776 396.595 789.968 396.051 788.928C395.507 787.888 395.235 786.704 395.235 785.376ZM406.371 785.4C406.371 784.408 406.171 783.544 405.771 782.808C405.371 782.072 404.827 781.512 404.139 781.128C403.467 780.728 402.723 780.528 401.907 780.528C401.091 780.528 400.347 780.72 399.675 781.104C399.003 781.488 398.467 782.048 398.067 782.784C397.667 783.52 397.467 784.384 397.467 785.376C397.467 786.384 397.667 787.264 398.067 788.016C398.467 788.752 399.003 789.32 399.675 789.72C400.347 790.104 401.091 790.296 401.907 790.296C402.723 790.296 403.467 790.104 404.139 789.72C404.827 789.32 405.371 788.752 405.771 788.016C406.171 787.264 406.371 786.392 406.371 785.4ZM418.678 778.608C420.278 778.608 421.574 779.096 422.566 780.072C423.558 781.032 424.054 782.424 424.054 784.248V792H421.894V784.56C421.894 783.248 421.566 782.248 420.91 781.56C420.254 780.856 419.358 780.504 418.222 780.504C417.07 780.504 416.15 780.864 415.462 781.584C414.79 782.304 414.454 783.352 414.454 784.728V792H412.27V778.848H414.454V780.72C414.886 780.048 415.47 779.528 416.206 779.16C416.958 778.792 417.782 778.608 418.678 778.608ZM430.285 780.648V788.4C430.285 789.04 430.421 789.496 430.693 789.768C430.965 790.024 431.437 790.152 432.109 790.152H433.717V792H431.749C430.533 792 429.621 791.72 429.013 791.16C428.405 790.6 428.101 789.68 428.101 788.4V780.648H426.397V778.848H428.101V775.536H430.285V778.848H433.717V780.648H430.285ZM435.548 785.376C435.548 784.032 435.82 782.856 436.364 781.848C436.908 780.824 437.652 780.032 438.596 779.472C439.556 778.912 440.62 778.632 441.788 778.632C442.94 778.632 443.94 778.88 444.788 779.376C445.636 779.872 446.268 780.496 446.684 781.248V778.848H448.892V792H446.684V789.552C446.252 790.32 445.604 790.96 444.74 791.472C443.892 791.968 442.9 792.216 441.764 792.216C440.596 792.216 439.54 791.928 438.596 791.352C437.652 790.776 436.908 789.968 436.364 788.928C435.82 787.888 435.548 786.704 435.548 785.376ZM446.684 785.4C446.684 784.408 446.484 783.544 446.084 782.808C445.684 782.072 445.14 781.512 444.452 781.128C443.78 780.728 443.036 780.528 442.22 780.528C441.404 780.528 440.66 780.72 439.988 781.104C439.316 781.488 438.78 782.048 438.38 782.784C437.98 783.52 437.78 784.384 437.78 785.376C437.78 786.384 437.98 787.264 438.38 788.016C438.78 788.752 439.316 789.32 439.988 789.72C440.66 790.104 441.404 790.296 442.22 790.296C443.036 790.296 443.78 790.104 444.452 789.72C445.14 789.32 445.684 788.752 446.084 788.016C446.484 787.264 446.684 786.392 446.684 785.4ZM458.99 778.608C460.59 778.608 461.886 779.096 462.878 780.072C463.87 781.032 464.366 782.424 464.366 784.248V792H462.206V784.56C462.206 783.248 461.878 782.248 461.222 781.56C460.566 780.856 459.67 780.504 458.534 780.504C457.382 780.504 456.462 780.864 455.774 781.584C455.102 782.304 454.766 783.352 454.766 784.728V792H452.582V778.848H454.766V780.72C455.198 780.048 455.782 779.528 456.518 779.16C457.27 778.792 458.094 778.608 458.99 778.608ZM479.934 784.92C479.934 785.336 479.91 785.776 479.862 786.24H469.35C469.43 787.536 469.87 788.552 470.67 789.288C471.486 790.008 472.47 790.368 473.622 790.368C474.566 790.368 475.35 790.152 475.974 789.72C476.614 789.272 477.062 788.68 477.318 787.944H479.67C479.318 789.208 478.614 790.24 477.558 791.04C476.502 791.824 475.19 792.216 473.622 792.216C472.374 792.216 471.254 791.936 470.262 791.376C469.286 790.816 468.518 790.024 467.958 789C467.398 787.96 467.118 786.76 467.118 785.4C467.118 784.04 467.39 782.848 467.934 781.824C468.478 780.8 469.238 780.016 470.214 779.472C471.206 778.912 472.342 778.632 473.622 778.632C474.87 778.632 475.974 778.904 476.934 779.448C477.894 779.992 478.63 780.744 479.142 781.704C479.67 782.648 479.934 783.72 479.934 784.92ZM477.678 784.464C477.678 783.632 477.494 782.92 477.126 782.328C476.758 781.72 476.254 781.264 475.614 780.96C474.99 780.64 474.294 780.48 473.526 780.48C472.422 780.48 471.478 780.832 470.694 781.536C469.926 782.24 469.486 783.216 469.374 784.464H477.678ZM488.553 792.216C487.321 792.216 486.201 791.936 485.193 791.376C484.201 790.816 483.417 790.024 482.841 789C482.281 787.96 482.001 786.76 482.001 785.4C482.001 784.056 482.289 782.872 482.865 781.848C483.457 780.808 484.257 780.016 485.265 779.472C486.273 778.912 487.401 778.632 488.649 778.632C489.897 778.632 491.025 778.912 492.033 779.472C493.041 780.016 493.833 780.8 494.409 781.824C495.001 782.848 495.297 784.04 495.297 785.4C495.297 786.76 494.993 787.96 494.385 789C493.793 790.024 492.985 790.816 491.961 791.376C490.937 791.936 489.801 792.216 488.553 792.216ZM488.553 790.296C489.337 790.296 490.073 790.112 490.761 789.744C491.449 789.376 492.001 788.824 492.417 788.088C492.849 787.352 493.065 786.456 493.065 785.4C493.065 784.344 492.857 783.448 492.441 782.712C492.025 781.976 491.481 781.432 490.809 781.08C490.137 780.712 489.409 780.528 488.625 780.528C487.825 780.528 487.089 780.712 486.417 781.08C485.761 781.432 485.233 781.976 484.833 782.712C484.433 783.448 484.233 784.344 484.233 785.4C484.233 786.472 484.425 787.376 484.809 788.112C485.209 788.848 485.737 789.4 486.393 789.768C487.049 790.12 487.769 790.296 488.553 790.296ZM509.832 778.848V792H507.648V790.056C507.232 790.728 506.648 791.256 505.896 791.64C505.16 792.008 504.344 792.192 503.448 792.192C502.424 792.192 501.504 791.984 500.688 791.568C499.872 791.136 499.224 790.496 498.744 789.648C498.28 788.8 498.048 787.768 498.048 786.552V778.848H500.208V786.264C500.208 787.56 500.536 788.56 501.192 789.264C501.848 789.952 502.744 790.296 503.88 790.296C505.048 790.296 505.968 789.936 506.64 789.216C507.312 788.496 507.648 787.448 507.648 786.072V778.848H509.832ZM518.176 792.216C517.168 792.216 516.264 792.048 515.464 791.712C514.664 791.36 514.032 790.88 513.568 790.272C513.104 789.648 512.848 788.936 512.8 788.136H515.056C515.12 788.792 515.424 789.328 515.968 789.744C516.528 790.16 517.256 790.368 518.152 790.368C518.984 790.368 519.64 790.184 520.12 789.816C520.6 789.448 520.84 788.984 520.84 788.424C520.84 787.848 520.584 787.424 520.072 787.152C519.56 786.864 518.768 786.584 517.696 786.312C516.72 786.056 515.92 785.8 515.296 785.544C514.688 785.272 514.16 784.88 513.712 784.368C513.28 783.84 513.064 783.152 513.064 782.304C513.064 781.632 513.264 781.016 513.664 780.456C514.064 779.896 514.632 779.456 515.368 779.136C516.104 778.8 516.944 778.632 517.888 778.632C519.344 778.632 520.52 779 521.416 779.736C522.312 780.472 522.792 781.48 522.856 782.76H520.672C520.624 782.072 520.344 781.52 519.832 781.104C519.336 780.688 518.664 780.48 517.816 780.48C517.032 780.48 516.408 780.648 515.944 780.984C515.48 781.32 515.248 781.76 515.248 782.304C515.248 782.736 515.384 783.096 515.656 783.384C515.944 783.656 516.296 783.88 516.712 784.056C517.144 784.216 517.736 784.4 518.488 784.608C519.432 784.864 520.2 785.12 520.792 785.376C521.384 785.616 521.888 785.984 522.304 786.48C522.736 786.976 522.96 787.624 522.976 788.424C522.976 789.144 522.776 789.792 522.376 790.368C521.976 790.944 521.408 791.4 520.672 791.736C519.952 792.056 519.12 792.216 518.176 792.216ZM42.032 821.4C42.032 820.04 42.304 818.856 42.848 817.848C43.392 816.824 44.144 816.032 45.104 815.472C46.08 814.912 47.192 814.632 48.44 814.632C50.056 814.632 51.384 815.024 52.424 815.808C53.48 816.592 54.176 817.68 54.512 819.072H52.16C51.936 818.272 51.496 817.64 50.84 817.176C50.2 816.712 49.4 816.48 48.44 816.48C47.192 816.48 46.184 816.912 45.416 817.776C44.648 818.624 44.264 819.832 44.264 821.4C44.264 822.984 44.648 824.208 45.416 825.072C46.184 825.936 47.192 826.368 48.44 826.368C49.4 826.368 50.2 826.144 50.84 825.696C51.48 825.248 51.92 824.608 52.16 823.776H54.512C54.16 825.12 53.456 826.2 52.4 827.016C51.344 827.816 50.024 828.216 48.44 828.216C47.192 828.216 46.08 827.936 45.104 827.376C44.144 826.816 43.392 826.024 42.848 825C42.304 823.976 42.032 822.776 42.032 821.4ZM63.1621 828.216C61.9301 828.216 60.8101 827.936 59.8021 827.376C58.8101 826.816 58.0261 826.024 57.4501 825C56.8901 823.96 56.6101 822.76 56.6101 821.4C56.6101 820.056 56.8981 818.872 57.4741 817.848C58.0661 816.808 58.8661 816.016 59.8741 815.472C60.8821 814.912 62.0101 814.632 63.2581 814.632C64.5061 814.632 65.6341 814.912 66.6421 815.472C67.6501 816.016 68.4421 816.8 69.0181 817.824C69.6101 818.848 69.9061 820.04 69.9061 821.4C69.9061 822.76 69.6021 823.96 68.9941 825C68.4021 826.024 67.5941 826.816 66.5701 827.376C65.5461 827.936 64.4101 828.216 63.1621 828.216ZM63.1621 826.296C63.9461 826.296 64.6821 826.112 65.3701 825.744C66.0581 825.376 66.6101 824.824 67.0261 824.088C67.4581 823.352 67.6741 822.456 67.6741 821.4C67.6741 820.344 67.4661 819.448 67.0501 818.712C66.6341 817.976 66.0901 817.432 65.4181 817.08C64.7461 816.712 64.0181 816.528 63.2341 816.528C62.4341 816.528 61.6981 816.712 61.0261 817.08C60.3701 817.432 59.8421 817.976 59.4421 818.712C59.0421 819.448 58.8421 820.344 58.8421 821.4C58.8421 822.472 59.0341 823.376 59.4181 824.112C59.8181 824.848 60.3461 825.4 61.0021 825.768C61.6581 826.12 62.3781 826.296 63.1621 826.296ZM88.5937 814.608C89.6177 814.608 90.5297 814.824 91.3297 815.256C92.1297 815.672 92.7617 816.304 93.2257 817.152C93.6897 818 93.9217 819.032 93.9217 820.248V828H91.7617V820.56C91.7617 819.248 91.4337 818.248 90.7777 817.56C90.1377 816.856 89.2657 816.504 88.1617 816.504C87.0257 816.504 86.1217 816.872 85.4497 817.608C84.7777 818.328 84.4417 819.376 84.4417 820.752V828H82.2817V820.56C82.2817 819.248 81.9537 818.248 81.2977 817.56C80.6577 816.856 79.7857 816.504 78.6817 816.504C77.5457 816.504 76.6417 816.872 75.9697 817.608C75.2977 818.328 74.9617 819.376 74.9617 820.752V828H72.7777V814.848H74.9617V816.744C75.3937 816.056 75.9697 815.528 76.6897 815.16C77.4257 814.792 78.2337 814.608 79.1137 814.608C80.2177 814.608 81.1937 814.856 82.0417 815.352C82.8897 815.848 83.5217 816.576 83.9377 817.536C84.3057 816.608 84.9137 815.888 85.7617 815.376C86.6097 814.864 87.5537 814.608 88.5937 814.608ZM113.32 814.608C114.344 814.608 115.256 814.824 116.056 815.256C116.856 815.672 117.488 816.304 117.952 817.152C118.416 818 118.648 819.032 118.648 820.248V828H116.488V820.56C116.488 819.248 116.16 818.248 115.504 817.56C114.864 816.856 113.992 816.504 112.888 816.504C111.752 816.504 110.848 816.872 110.176 817.608C109.504 818.328 109.168 819.376 109.168 820.752V828H107.008V820.56C107.008 819.248 106.68 818.248 106.024 817.56C105.384 816.856 104.512 816.504 103.408 816.504C102.272 816.504 101.368 816.872 100.696 817.608C100.024 818.328 99.6883 819.376 99.6883 820.752V828H97.5043V814.848H99.6883V816.744C100.12 816.056 100.696 815.528 101.416 815.16C102.152 814.792 102.96 814.608 103.84 814.608C104.944 814.608 105.92 814.856 106.768 815.352C107.616 815.848 108.248 816.576 108.664 817.536C109.032 816.608 109.64 815.888 110.488 815.376C111.336 814.864 112.28 814.608 113.32 814.608ZM133.895 814.848V828H131.711V826.056C131.295 826.728 130.711 827.256 129.959 827.64C129.223 828.008 128.407 828.192 127.511 828.192C126.487 828.192 125.567 827.984 124.751 827.568C123.935 827.136 123.287 826.496 122.807 825.648C122.343 824.8 122.111 823.768 122.111 822.552V814.848H124.271V822.264C124.271 823.56 124.599 824.56 125.255 825.264C125.911 825.952 126.807 826.296 127.943 826.296C129.111 826.296 130.031 825.936 130.703 825.216C131.375 824.496 131.711 823.448 131.711 822.072V814.848H133.895ZM143.99 814.608C145.59 814.608 146.886 815.096 147.878 816.072C148.87 817.032 149.366 818.424 149.366 820.248V828H147.206V820.56C147.206 819.248 146.878 818.248 146.222 817.56C145.566 816.856 144.67 816.504 143.534 816.504C142.382 816.504 141.462 816.864 140.774 817.584C140.102 818.304 139.766 819.352 139.766 820.728V828H137.582V814.848H139.766V816.72C140.198 816.048 140.782 815.528 141.518 815.16C142.27 814.792 143.094 814.608 143.99 814.608ZM154.062 812.712C153.646 812.712 153.294 812.568 153.006 812.28C152.718 811.992 152.574 811.64 152.574 811.224C152.574 810.808 152.718 810.456 153.006 810.168C153.294 809.88 153.646 809.736 154.062 809.736C154.462 809.736 154.798 809.88 155.07 810.168C155.358 810.456 155.502 810.808 155.502 811.224C155.502 811.64 155.358 811.992 155.07 812.28C154.798 812.568 154.462 812.712 154.062 812.712ZM155.118 814.848V828H152.934V814.848H155.118ZM158.024 821.4C158.024 820.04 158.296 818.856 158.84 817.848C159.384 816.824 160.136 816.032 161.096 815.472C162.072 814.912 163.184 814.632 164.432 814.632C166.048 814.632 167.376 815.024 168.416 815.808C169.472 816.592 170.168 817.68 170.504 819.072H168.152C167.928 818.272 167.488 817.64 166.832 817.176C166.192 816.712 165.392 816.48 164.432 816.48C163.184 816.48 162.176 816.912 161.408 817.776C160.64 818.624 160.256 819.832 160.256 821.4C160.256 822.984 160.64 824.208 161.408 825.072C162.176 825.936 163.184 826.368 164.432 826.368C165.392 826.368 166.192 826.144 166.832 825.696C167.472 825.248 167.912 824.608 168.152 823.776H170.504C170.152 825.12 169.448 826.2 168.392 827.016C167.336 827.816 166.016 828.216 164.432 828.216C163.184 828.216 162.072 827.936 161.096 827.376C160.136 826.816 159.384 826.024 158.84 825C158.296 823.976 158.024 822.776 158.024 821.4ZM172.602 821.376C172.602 820.032 172.874 818.856 173.418 817.848C173.962 816.824 174.706 816.032 175.65 815.472C176.61 814.912 177.674 814.632 178.842 814.632C179.994 814.632 180.994 814.88 181.842 815.376C182.69 815.872 183.322 816.496 183.738 817.248V814.848H185.946V828H183.738V825.552C183.306 826.32 182.658 826.96 181.794 827.472C180.946 827.968 179.954 828.216 178.818 828.216C177.65 828.216 176.594 827.928 175.65 827.352C174.706 826.776 173.962 825.968 173.418 824.928C172.874 823.888 172.602 822.704 172.602 821.376ZM183.738 821.4C183.738 820.408 183.538 819.544 183.138 818.808C182.738 818.072 182.194 817.512 181.506 817.128C180.834 816.728 180.09 816.528 179.274 816.528C178.458 816.528 177.714 816.72 177.042 817.104C176.37 817.488 175.834 818.048 175.434 818.784C175.034 819.52 174.834 820.384 174.834 821.376C174.834 822.384 175.034 823.264 175.434 824.016C175.834 824.752 176.37 825.32 177.042 825.72C177.714 826.104 178.458 826.296 179.274 826.296C180.09 826.296 180.834 826.104 181.506 825.72C182.194 825.32 182.738 824.752 183.138 824.016C183.538 823.264 183.738 822.392 183.738 821.4ZM192.301 816.648V824.4C192.301 825.04 192.437 825.496 192.709 825.768C192.981 826.024 193.453 826.152 194.125 826.152H195.733V828H193.765C192.549 828 191.637 827.72 191.029 827.16C190.421 826.6 190.117 825.68 190.117 824.4V816.648H188.413V814.848H190.117V811.536H192.301V814.848H195.733V816.648H192.301ZM199.507 812.712C199.091 812.712 198.739 812.568 198.451 812.28C198.163 811.992 198.019 811.64 198.019 811.224C198.019 810.808 198.163 810.456 198.451 810.168C198.739 809.88 199.091 809.736 199.507 809.736C199.907 809.736 200.243 809.88 200.515 810.168C200.803 810.456 200.947 810.808 200.947 811.224C200.947 811.64 200.803 811.992 200.515 812.28C200.243 812.568 199.907 812.712 199.507 812.712ZM200.563 814.848V828H198.379V814.848H200.563ZM210.022 828.216C208.79 828.216 207.67 827.936 206.662 827.376C205.67 826.816 204.886 826.024 204.31 825C203.75 823.96 203.47 822.76 203.47 821.4C203.47 820.056 203.758 818.872 204.334 817.848C204.926 816.808 205.726 816.016 206.734 815.472C207.742 814.912 208.87 814.632 210.118 814.632C211.366 814.632 212.494 814.912 213.502 815.472C214.51 816.016 215.302 816.8 215.878 817.824C216.47 818.848 216.766 820.04 216.766 821.4C216.766 822.76 216.462 823.96 215.854 825C215.262 826.024 214.454 826.816 213.43 827.376C212.406 827.936 211.27 828.216 210.022 828.216ZM210.022 826.296C210.806 826.296 211.542 826.112 212.23 825.744C212.918 825.376 213.47 824.824 213.886 824.088C214.318 823.352 214.534 822.456 214.534 821.4C214.534 820.344 214.326 819.448 213.91 818.712C213.494 817.976 212.95 817.432 212.278 817.08C211.606 816.712 210.878 816.528 210.094 816.528C209.294 816.528 208.558 816.712 207.886 817.08C207.23 817.432 206.702 817.976 206.302 818.712C205.902 819.448 205.702 820.344 205.702 821.4C205.702 822.472 205.894 823.376 206.278 824.112C206.678 824.848 207.206 825.4 207.862 825.768C208.518 826.12 209.238 826.296 210.022 826.296ZM226.045 814.608C227.645 814.608 228.941 815.096 229.933 816.072C230.925 817.032 231.421 818.424 231.421 820.248V828H229.261V820.56C229.261 819.248 228.933 818.248 228.277 817.56C227.621 816.856 226.725 816.504 225.589 816.504C224.437 816.504 223.517 816.864 222.829 817.584C222.157 818.304 221.821 819.352 221.821 820.728V828H219.637V814.848H221.821V816.72C222.253 816.048 222.837 815.528 223.573 815.16C224.325 814.792 225.149 814.608 226.045 814.608ZM258.907 814.848L254.803 828H252.547L249.379 817.56L246.211 828H243.955L239.827 814.848H242.059L245.083 825.888L248.347 814.848H250.579L253.771 825.912L256.747 814.848H258.907ZM262.203 812.712C261.787 812.712 261.435 812.568 261.147 812.28C260.859 811.992 260.715 811.64 260.715 811.224C260.715 810.808 260.859 810.456 261.147 810.168C261.435 809.88 261.787 809.736 262.203 809.736C262.603 809.736 262.939 809.88 263.211 810.168C263.499 810.456 263.643 810.808 263.643 811.224C263.643 811.64 263.499 811.992 263.211 812.28C262.939 812.568 262.603 812.712 262.203 812.712ZM263.259 814.848V828H261.075V814.848H263.259ZM269.645 816.648V824.4C269.645 825.04 269.781 825.496 270.053 825.768C270.325 826.024 270.797 826.152 271.469 826.152H273.077V828H271.109C269.893 828 268.981 827.72 268.373 827.16C267.765 826.6 267.461 825.68 267.461 824.4V816.648H265.757V814.848H267.461V811.536H269.645V814.848H273.077V816.648H269.645ZM282.251 814.608C283.243 814.608 284.139 814.824 284.939 815.256C285.739 815.672 286.363 816.304 286.811 817.152C287.275 818 287.507 819.032 287.507 820.248V828H285.347V820.56C285.347 819.248 285.019 818.248 284.363 817.56C283.707 816.856 282.811 816.504 281.675 816.504C280.523 816.504 279.603 816.864 278.915 817.584C278.243 818.304 277.907 819.352 277.907 820.728V828H275.723V810.24H277.907V816.72C278.339 816.048 278.931 815.528 279.683 815.16C280.451 814.792 281.307 814.608 282.251 814.608ZM303.209 828.216C301.977 828.216 300.857 827.936 299.849 827.376C298.857 826.816 298.073 826.024 297.497 825C296.937 823.96 296.657 822.76 296.657 821.4C296.657 820.056 296.945 818.872 297.521 817.848C298.113 816.808 298.913 816.016 299.921 815.472C300.929 814.912 302.057 814.632 303.305 814.632C304.553 814.632 305.681 814.912 306.689 815.472C307.697 816.016 308.489 816.8 309.065 817.824C309.657 818.848 309.953 820.04 309.953 821.4C309.953 822.76 309.649 823.96 309.041 825C308.449 826.024 307.641 826.816 306.617 827.376C305.593 827.936 304.457 828.216 303.209 828.216ZM303.209 826.296C303.993 826.296 304.729 826.112 305.417 825.744C306.105 825.376 306.657 824.824 307.073 824.088C307.505 823.352 307.721 822.456 307.721 821.4C307.721 820.344 307.513 819.448 307.097 818.712C306.681 817.976 306.137 817.432 305.465 817.08C304.793 816.712 304.065 816.528 303.281 816.528C302.481 816.528 301.745 816.712 301.073 817.08C300.417 817.432 299.889 817.976 299.489 818.712C299.089 819.448 298.889 820.344 298.889 821.4C298.889 822.472 299.081 823.376 299.465 824.112C299.865 824.848 300.393 825.4 301.049 825.768C301.705 826.12 302.425 826.296 303.209 826.296ZM324.489 814.848V828H322.305V826.056C321.889 826.728 321.305 827.256 320.553 827.64C319.817 828.008 319.001 828.192 318.105 828.192C317.081 828.192 316.161 827.984 315.345 827.568C314.529 827.136 313.881 826.496 313.401 825.648C312.937 824.8 312.705 823.768 312.705 822.552V814.848H314.865V822.264C314.865 823.56 315.193 824.56 315.849 825.264C316.505 825.952 317.401 826.296 318.537 826.296C319.705 826.296 320.625 825.936 321.297 825.216C321.969 824.496 322.305 823.448 322.305 822.072V814.848H324.489ZM330.36 816.984C330.744 816.232 331.288 815.648 331.992 815.232C332.712 814.816 333.584 814.608 334.608 814.608V816.864H334.032C331.584 816.864 330.36 818.192 330.36 820.848V828H328.176V814.848H330.36V816.984ZM345.712 816.984C346.096 816.232 346.64 815.648 347.344 815.232C348.064 814.816 348.936 814.608 349.96 814.608V816.864H349.384C346.936 816.864 345.712 818.192 345.712 820.848V828H343.528V814.848H345.712V816.984ZM364.481 820.92C364.481 821.336 364.457 821.776 364.409 822.24H353.897C353.977 823.536 354.417 824.552 355.217 825.288C356.033 826.008 357.017 826.368 358.169 826.368C359.113 826.368 359.897 826.152 360.521 825.72C361.161 825.272 361.609 824.68 361.865 823.944H364.217C363.865 825.208 363.161 826.24 362.105 827.04C361.049 827.824 359.737 828.216 358.169 828.216C356.921 828.216 355.801 827.936 354.809 827.376C353.833 826.816 353.065 826.024 352.505 825C351.945 823.96 351.665 822.76 351.665 821.4C351.665 820.04 351.937 818.848 352.481 817.824C353.025 816.8 353.785 816.016 354.761 815.472C355.753 814.912 356.889 814.632 358.169 814.632C359.417 814.632 360.521 814.904 361.481 815.448C362.441 815.992 363.177 816.744 363.689 817.704C364.217 818.648 364.481 819.72 364.481 820.92ZM362.225 820.464C362.225 819.632 362.041 818.92 361.673 818.328C361.305 817.72 360.801 817.264 360.161 816.96C359.537 816.64 358.841 816.48 358.073 816.48C356.969 816.48 356.025 816.832 355.241 817.536C354.473 818.24 354.033 819.216 353.921 820.464H362.225ZM366.548 821.376C366.548 820.032 366.82 818.856 367.364 817.848C367.908 816.824 368.652 816.032 369.596 815.472C370.556 814.912 371.62 814.632 372.788 814.632C373.94 814.632 374.94 814.88 375.788 815.376C376.636 815.872 377.268 816.496 377.684 817.248V814.848H379.892V828H377.684V825.552C377.252 826.32 376.604 826.96 375.74 827.472C374.892 827.968 373.9 828.216 372.764 828.216C371.596 828.216 370.54 827.928 369.596 827.352C368.652 826.776 367.908 825.968 367.364 824.928C366.82 823.888 366.548 822.704 366.548 821.376ZM377.684 821.4C377.684 820.408 377.484 819.544 377.084 818.808C376.684 818.072 376.14 817.512 375.452 817.128C374.78 816.728 374.036 816.528 373.22 816.528C372.404 816.528 371.66 816.72 370.988 817.104C370.316 817.488 369.78 818.048 369.38 818.784C368.98 819.52 368.78 820.384 368.78 821.376C368.78 822.384 368.98 823.264 369.38 824.016C369.78 824.752 370.316 825.32 370.988 825.72C371.66 826.104 372.404 826.296 373.22 826.296C374.036 826.296 374.78 826.104 375.452 825.72C376.14 825.32 376.684 824.752 377.084 824.016C377.484 823.264 377.684 822.392 377.684 821.4ZM385.766 810.24V828H383.582V810.24H385.766ZM398.609 818.28V820.128H389.033V818.28H398.609ZM405.371 816.648V824.4C405.371 825.04 405.507 825.496 405.779 825.768C406.051 826.024 406.523 826.152 407.195 826.152H408.803V828H406.835C405.619 828 404.707 827.72 404.099 827.16C403.491 826.6 403.187 825.68 403.187 824.4V816.648H401.483V814.848H403.187V811.536H405.371V814.848H408.803V816.648H405.371ZM412.578 812.712C412.162 812.712 411.81 812.568 411.522 812.28C411.234 811.992 411.09 811.64 411.09 811.224C411.09 810.808 411.234 810.456 411.522 810.168C411.81 809.88 412.162 809.736 412.578 809.736C412.978 809.736 413.314 809.88 413.586 810.168C413.874 810.456 414.018 810.808 414.018 811.224C414.018 811.64 413.874 811.992 413.586 812.28C413.314 812.568 412.978 812.712 412.578 812.712ZM413.634 814.848V828H411.45V814.848H413.634ZM433.172 814.608C434.196 814.608 435.108 814.824 435.908 815.256C436.708 815.672 437.34 816.304 437.804 817.152C438.268 818 438.5 819.032 438.5 820.248V828H436.34V820.56C436.34 819.248 436.012 818.248 435.356 817.56C434.716 816.856 433.844 816.504 432.74 816.504C431.604 816.504 430.7 816.872 430.028 817.608C429.356 818.328 429.02 819.376 429.02 820.752V828H426.86V820.56C426.86 819.248 426.532 818.248 425.876 817.56C425.236 816.856 424.364 816.504 423.26 816.504C422.124 816.504 421.22 816.872 420.548 817.608C419.876 818.328 419.54 819.376 419.54 820.752V828H417.356V814.848H419.54V816.744C419.972 816.056 420.548 815.528 421.268 815.16C422.004 814.792 422.812 814.608 423.692 814.608C424.796 814.608 425.772 814.856 426.62 815.352C427.468 815.848 428.1 816.576 428.516 817.536C428.884 816.608 429.492 815.888 430.34 815.376C431.188 814.864 432.132 814.608 433.172 814.608ZM454.082 820.92C454.082 821.336 454.058 821.776 454.01 822.24H443.498C443.578 823.536 444.018 824.552 444.818 825.288C445.634 826.008 446.618 826.368 447.77 826.368C448.714 826.368 449.498 826.152 450.122 825.72C450.762 825.272 451.21 824.68 451.466 823.944H453.818C453.466 825.208 452.762 826.24 451.706 827.04C450.65 827.824 449.338 828.216 447.77 828.216C446.522 828.216 445.402 827.936 444.41 827.376C443.434 826.816 442.666 826.024 442.106 825C441.546 823.96 441.266 822.76 441.266 821.4C441.266 820.04 441.538 818.848 442.082 817.824C442.626 816.8 443.386 816.016 444.362 815.472C445.354 814.912 446.49 814.632 447.77 814.632C449.018 814.632 450.122 814.904 451.082 815.448C452.042 815.992 452.778 816.744 453.29 817.704C453.818 818.648 454.082 819.72 454.082 820.92ZM451.826 820.464C451.826 819.632 451.642 818.92 451.274 818.328C450.906 817.72 450.402 817.264 449.762 816.96C449.138 816.64 448.442 816.48 447.674 816.48C446.57 816.48 445.626 816.832 444.842 817.536C444.074 818.24 443.634 819.216 443.522 820.464H451.826ZM462.548 821.4C462.548 820.04 462.82 818.856 463.364 817.848C463.908 816.824 464.66 816.032 465.62 815.472C466.596 814.912 467.708 814.632 468.956 814.632C470.572 814.632 471.9 815.024 472.94 815.808C473.996 816.592 474.692 817.68 475.028 819.072H472.676C472.452 818.272 472.012 817.64 471.356 817.176C470.716 816.712 469.916 816.48 468.956 816.48C467.708 816.48 466.7 816.912 465.932 817.776C465.164 818.624 464.78 819.832 464.78 821.4C464.78 822.984 465.164 824.208 465.932 825.072C466.7 825.936 467.708 826.368 468.956 826.368C469.916 826.368 470.716 826.144 471.356 825.696C471.996 825.248 472.436 824.608 472.676 823.776H475.028C474.676 825.12 473.972 826.2 472.916 827.016C471.86 827.816 470.54 828.216 468.956 828.216C467.708 828.216 466.596 827.936 465.62 827.376C464.66 826.816 463.908 826.024 463.364 825C462.82 823.976 462.548 822.776 462.548 821.4ZM484.47 814.608C485.462 814.608 486.358 814.824 487.158 815.256C487.958 815.672 488.582 816.304 489.03 817.152C489.494 818 489.726 819.032 489.726 820.248V828H487.566V820.56C487.566 819.248 487.238 818.248 486.582 817.56C485.926 816.856 485.03 816.504 483.894 816.504C482.742 816.504 481.822 816.864 481.134 817.584C480.462 818.304 480.126 819.352 480.126 820.728V828H477.942V810.24H480.126V816.72C480.558 816.048 481.15 815.528 481.902 815.16C482.67 814.792 483.526 814.608 484.47 814.608ZM492.477 821.376C492.477 820.032 492.749 818.856 493.293 817.848C493.837 816.824 494.581 816.032 495.525 815.472C496.485 814.912 497.549 814.632 498.717 814.632C499.869 814.632 500.869 814.88 501.717 815.376C502.565 815.872 503.197 816.496 503.613 817.248V814.848H505.821V828H503.613V825.552C503.181 826.32 502.533 826.96 501.669 827.472C500.821 827.968 499.829 828.216 498.693 828.216C497.525 828.216 496.469 827.928 495.525 827.352C494.581 826.776 493.837 825.968 493.293 824.928C492.749 823.888 492.477 822.704 492.477 821.376ZM503.613 821.4C503.613 820.408 503.413 819.544 503.013 818.808C502.613 818.072 502.069 817.512 501.381 817.128C500.709 816.728 499.965 816.528 499.149 816.528C498.333 816.528 497.589 816.72 496.917 817.104C496.245 817.488 495.709 818.048 495.309 818.784C494.909 819.52 494.709 820.384 494.709 821.376C494.709 822.384 494.909 823.264 495.309 824.016C495.709 824.752 496.245 825.32 496.917 825.72C497.589 826.104 498.333 826.296 499.149 826.296C499.965 826.296 500.709 826.104 501.381 825.72C502.069 825.32 502.613 824.752 503.013 824.016C503.413 823.264 503.613 822.392 503.613 821.4ZM512.176 816.648V824.4C512.176 825.04 512.312 825.496 512.584 825.768C512.856 826.024 513.328 826.152 514 826.152H515.608V828H513.64C512.424 828 511.512 827.72 510.904 827.16C510.296 826.6 509.992 825.68 509.992 824.4V816.648H508.288V814.848H509.992V811.536H512.176V814.848H515.608V816.648H512.176ZM523.837 821.376C523.837 820.032 524.109 818.856 524.653 817.848C525.197 816.824 525.941 816.032 526.885 815.472C527.845 814.912 528.909 814.632 530.077 814.632C531.229 814.632 532.229 814.88 533.077 815.376C533.925 815.872 534.557 816.496 534.973 817.248V814.848H537.181V828H534.973V825.552C534.541 826.32 533.893 826.96 533.029 827.472C532.181 827.968 531.189 828.216 530.053 828.216C528.885 828.216 527.829 827.928 526.885 827.352C525.941 826.776 525.197 825.968 524.653 824.928C524.109 823.888 523.837 822.704 523.837 821.376ZM534.973 821.4C534.973 820.408 534.773 819.544 534.373 818.808C533.973 818.072 533.429 817.512 532.741 817.128C532.069 816.728 531.325 816.528 530.509 816.528C529.693 816.528 528.949 816.72 528.277 817.104C527.605 817.488 527.069 818.048 526.669 818.784C526.269 819.52 526.069 820.384 526.069 821.376C526.069 822.384 526.269 823.264 526.669 824.016C527.069 824.752 527.605 825.32 528.277 825.72C528.949 826.104 529.693 826.296 530.509 826.296C531.325 826.296 532.069 826.104 532.741 825.72C533.429 825.32 533.973 824.752 534.373 824.016C534.773 823.264 534.973 822.392 534.973 821.4ZM543.055 817.272C543.487 816.52 544.127 815.896 544.975 815.4C545.839 814.888 546.839 814.632 547.975 814.632C549.143 814.632 550.199 814.912 551.143 815.472C552.103 816.032 552.855 816.824 553.399 817.848C553.943 818.856 554.215 820.032 554.215 821.376C554.215 822.704 553.943 823.888 553.399 824.928C552.855 825.968 552.103 826.776 551.143 827.352C550.199 827.928 549.143 828.216 547.975 828.216C546.855 828.216 545.863 827.968 544.999 827.472C544.151 826.96 543.503 826.328 543.055 825.576V834.24H540.871V814.848H543.055V817.272ZM551.983 821.376C551.983 820.384 551.783 819.52 551.383 818.784C550.983 818.048 550.439 817.488 549.751 817.104C549.079 816.72 548.335 816.528 547.519 816.528C546.719 816.528 545.975 816.728 545.287 817.128C544.615 817.512 544.071 818.08 543.655 818.832C543.255 819.568 543.055 820.424 543.055 821.4C543.055 822.392 543.255 823.264 543.655 824.016C544.071 824.752 544.615 825.32 545.287 825.72C545.975 826.104 546.719 826.296 547.519 826.296C548.335 826.296 549.079 826.104 549.751 825.72C550.439 825.32 550.983 824.752 551.383 824.016C551.783 823.264 551.983 822.384 551.983 821.376ZM559.274 817.272C559.706 816.52 560.346 815.896 561.194 815.4C562.058 814.888 563.058 814.632 564.194 814.632C565.362 814.632 566.418 814.912 567.362 815.472C568.322 816.032 569.074 816.824 569.618 817.848C570.162 818.856 570.434 820.032 570.434 821.376C570.434 822.704 570.162 823.888 569.618 824.928C569.074 825.968 568.322 826.776 567.362 827.352C566.418 827.928 565.362 828.216 564.194 828.216C563.074 828.216 562.082 827.968 561.218 827.472C560.37 826.96 559.722 826.328 559.274 825.576V834.24H557.09V814.848H559.274V817.272ZM568.202 821.376C568.202 820.384 568.002 819.52 567.602 818.784C567.202 818.048 566.658 817.488 565.97 817.104C565.298 816.72 564.554 816.528 563.738 816.528C562.938 816.528 562.194 816.728 561.506 817.128C560.834 817.512 560.29 818.08 559.874 818.832C559.474 819.568 559.274 820.424 559.274 821.4C559.274 822.392 559.474 823.264 559.874 824.016C560.29 824.752 560.834 825.32 561.506 825.72C562.194 826.104 562.938 826.296 563.738 826.296C564.554 826.296 565.298 826.104 565.97 825.72C566.658 825.32 567.202 824.752 567.602 824.016C568.002 823.264 568.202 822.384 568.202 821.376ZM575.493 810.24V828H573.309V810.24H575.493ZM580.343 812.712C579.927 812.712 579.575 812.568 579.287 812.28C578.999 811.992 578.855 811.64 578.855 811.224C578.855 810.808 578.999 810.456 579.287 810.168C579.575 809.88 579.927 809.736 580.343 809.736C580.743 809.736 581.079 809.88 581.351 810.168C581.639 810.456 581.783 810.808 581.783 811.224C581.783 811.64 581.639 811.992 581.351 812.28C581.079 812.568 580.743 812.712 580.343 812.712ZM581.399 814.848V828H579.215V814.848H581.399ZM584.305 821.4C584.305 820.04 584.577 818.856 585.121 817.848C585.665 816.824 586.417 816.032 587.377 815.472C588.353 814.912 589.465 814.632 590.713 814.632C592.329 814.632 593.657 815.024 594.697 815.808C595.753 816.592 596.449 817.68 596.785 819.072H594.433C594.209 818.272 593.769 817.64 593.113 817.176C592.473 816.712 591.673 816.48 590.713 816.48C589.465 816.48 588.457 816.912 587.689 817.776C586.921 818.624 586.537 819.832 586.537 821.4C586.537 822.984 586.921 824.208 587.689 825.072C588.457 825.936 589.465 826.368 590.713 826.368C591.673 826.368 592.473 826.144 593.113 825.696C593.753 825.248 594.193 824.608 594.433 823.776H596.785C596.433 825.12 595.729 826.2 594.673 827.016C593.617 827.816 592.297 828.216 590.713 828.216C589.465 828.216 588.353 827.936 587.377 827.376C586.417 826.816 585.665 826.024 585.121 825C584.577 823.976 584.305 822.776 584.305 821.4ZM598.884 821.376C598.884 820.032 599.156 818.856 599.7 817.848C600.244 816.824 600.988 816.032 601.932 815.472C602.892 814.912 603.956 814.632 605.124 814.632C606.276 814.632 607.276 814.88 608.124 815.376C608.972 815.872 609.604 816.496 610.02 817.248V814.848H612.228V828H610.02V825.552C609.588 826.32 608.94 826.96 608.076 827.472C607.228 827.968 606.236 828.216 605.1 828.216C603.932 828.216 602.876 827.928 601.932 827.352C600.988 826.776 600.244 825.968 599.7 824.928C599.156 823.888 598.884 822.704 598.884 821.376ZM610.02 821.4C610.02 820.408 609.82 819.544 609.42 818.808C609.02 818.072 608.476 817.512 607.788 817.128C607.116 816.728 606.372 816.528 605.556 816.528C604.74 816.528 603.996 816.72 603.324 817.104C602.652 817.488 602.116 818.048 601.716 818.784C601.316 819.52 601.116 820.384 601.116 821.376C601.116 822.384 601.316 823.264 601.716 824.016C602.116 824.752 602.652 825.32 603.324 825.72C603.996 826.104 604.74 826.296 605.556 826.296C606.372 826.296 607.116 826.104 607.788 825.72C608.476 825.32 609.02 824.752 609.42 824.016C609.82 823.264 610.02 822.392 610.02 821.4ZM618.582 816.648V824.4C618.582 825.04 618.718 825.496 618.99 825.768C619.262 826.024 619.734 826.152 620.406 826.152H622.014V828H620.046C618.83 828 617.918 827.72 617.31 827.16C616.702 826.6 616.398 825.68 616.398 824.4V816.648H614.694V814.848H616.398V811.536H618.582V814.848H622.014V816.648H618.582ZM625.789 812.712C625.373 812.712 625.021 812.568 624.733 812.28C624.445 811.992 624.301 811.64 624.301 811.224C624.301 810.808 624.445 810.456 624.733 810.168C625.021 809.88 625.373 809.736 625.789 809.736C626.189 809.736 626.525 809.88 626.797 810.168C627.085 810.456 627.229 810.808 627.229 811.224C627.229 811.64 627.085 811.992 626.797 812.28C626.525 812.568 626.189 812.712 625.789 812.712ZM626.845 814.848V828H624.661V814.848H626.845ZM636.303 828.216C635.071 828.216 633.951 827.936 632.943 827.376C631.951 826.816 631.167 826.024 630.591 825C630.031 823.96 629.751 822.76 629.751 821.4C629.751 820.056 630.039 818.872 630.615 817.848C631.207 816.808 632.007 816.016 633.015 815.472C634.023 814.912 635.151 814.632 636.399 814.632C637.647 814.632 638.775 814.912 639.783 815.472C640.791 816.016 641.583 816.8 642.159 817.824C642.751 818.848 643.047 820.04 643.047 821.4C643.047 822.76 642.743 823.96 642.135 825C641.543 826.024 640.735 826.816 639.711 827.376C638.687 827.936 637.551 828.216 636.303 828.216ZM636.303 826.296C637.087 826.296 637.823 826.112 638.511 825.744C639.199 825.376 639.751 824.824 640.167 824.088C640.599 823.352 640.815 822.456 640.815 821.4C640.815 820.344 640.607 819.448 640.191 818.712C639.775 817.976 639.231 817.432 638.559 817.08C637.887 816.712 637.159 816.528 636.375 816.528C635.575 816.528 634.839 816.712 634.167 817.08C633.511 817.432 632.983 817.976 632.583 818.712C632.183 819.448 631.983 820.344 631.983 821.4C631.983 822.472 632.175 823.376 632.559 824.112C632.959 824.848 633.487 825.4 634.143 825.768C634.799 826.12 635.519 826.296 636.303 826.296ZM652.326 814.608C653.926 814.608 655.222 815.096 656.214 816.072C657.206 817.032 657.702 818.424 657.702 820.248V828H655.542V820.56C655.542 819.248 655.214 818.248 654.558 817.56C653.902 816.856 653.006 816.504 651.87 816.504C650.718 816.504 649.798 816.864 649.11 817.584C648.438 818.304 648.102 819.352 648.102 820.728V828H645.918V814.848H648.102V816.72C648.534 816.048 649.118 815.528 649.854 815.16C650.606 814.792 651.43 814.608 652.326 814.608Z" fill="black"/>
<defs>
<clipPath id="clip0_1_2">
<rect width="658" height="277.396" fill="white" transform="translate(31 235)"/>
</clipPath>
</defs>
</svg>
