<svg width="259" height="54" viewBox="0 0 259 54" fill="none" xmlns="http://www.w3.org/2000/svg">
<circle cx="10.6899" cy="29.3119" r="3.68772" fill="#FF8E25"/>
<circle cx="36.5039" cy="29.3119" r="3.68772" fill="#FF8E25"/>
<circle cx="23.5969" cy="24.7023" r="3.68772" fill="#FF8E25"/>
<rect x="0.548645" y="9.49042" width="44.7136" height="9.21931" rx="4.60965" fill="#027FFF"/>
<rect x="3.03979" y="0.464661" width="27.7318" height="5.07062" rx="2.53531" transform="rotate(30 3.03979 0.464661)" fill="#027FFF"/>
<rect width="27.7318" height="5.07062" rx="2.53531" transform="matrix(-0.866025 0.5 0.5 0.866025 43.4647 0.464661)" fill="#027FFF"/>
<rect x="45.9558" y="44.5359" width="44.7136" height="9.21931" rx="4.60965" transform="rotate(-180 45.9558 44.5359)" fill="#027FFF"/>
<rect x="43.4647" y="53.5617" width="27.7318" height="5.07062" rx="2.53531" transform="rotate(-150 43.4647 53.5617)" fill="#027FFF"/>
<rect width="27.7318" height="5.07062" rx="2.53531" transform="matrix(0.866025 -0.5 -0.5 -0.866025 3.03979 53.5617)" fill="#027FFF"/>
<path d="M52.32 26.92C52.32 24.1467 52.92 21.68 54.12 19.52C55.32 17.3333 56.9867 15.64 59.12 14.44C61.28 13.2133 63.72 12.6 66.44 12.6C69.7733 12.6 72.6267 13.48 75 15.24C77.3733 17 78.96 19.4 79.76 22.44H72.24C71.68 21.2667 70.88 20.3733 69.84 19.76C68.8267 19.1467 67.6667 18.84 66.36 18.84C64.2533 18.84 62.5467 19.5733 61.24 21.04C59.9333 22.5067 59.28 24.4667 59.28 26.92C59.28 29.3733 59.9333 31.3333 61.24 32.8C62.5467 34.2667 64.2533 35 66.36 35C67.6667 35 68.8267 34.6933 69.84 34.08C70.88 33.4667 71.68 32.5733 72.24 31.4H79.76C78.96 34.44 77.3733 36.84 75 38.6C72.6267 40.3333 69.7733 41.2 66.44 41.2C63.72 41.2 61.28 40.6 59.12 39.4C56.9867 38.1733 55.32 36.48 54.12 34.32C52.92 32.16 52.32 29.6933 52.32 26.92ZM97.6688 18.44C100.229 18.44 102.282 19.2933 103.829 21C105.375 22.68 106.149 25 106.149 27.96V41H99.3488V28.88C99.3488 27.3867 98.9621 26.2267 98.1888 25.4C97.4154 24.5733 96.3754 24.16 95.0688 24.16C93.7621 24.16 92.7221 24.5733 91.9488 25.4C91.1754 26.2267 90.7888 27.3867 90.7888 28.88V41H83.9488V11.4H90.7888V21.68C91.4821 20.6933 92.4288 19.9067 93.6288 19.32C94.8288 18.7333 96.1754 18.44 97.6688 18.44ZM109.542 29.8C109.542 27.5067 109.969 25.4933 110.822 23.76C111.702 22.0267 112.889 20.6933 114.382 19.76C115.875 18.8267 117.542 18.36 119.382 18.36C120.955 18.36 122.329 18.68 123.502 19.32C124.702 19.96 125.622 20.8 126.262 21.84V18.68H133.102V41H126.262V37.84C125.595 38.88 124.662 39.72 123.462 40.36C122.289 41 120.915 41.32 119.342 41.32C117.529 41.32 115.875 40.8533 114.382 39.92C112.889 38.96 111.702 37.6133 110.822 35.88C109.969 34.12 109.542 32.0933 109.542 29.8ZM126.262 29.84C126.262 28.1333 125.782 26.7867 124.822 25.8C123.889 24.8133 122.742 24.32 121.382 24.32C120.022 24.32 118.862 24.8133 117.902 25.8C116.969 26.76 116.502 28.0933 116.502 29.8C116.502 31.5067 116.969 32.8667 117.902 33.88C118.862 34.8667 120.022 35.36 121.382 35.36C122.742 35.36 123.889 34.8667 124.822 33.88C125.782 32.8933 126.262 31.5467 126.262 29.84ZM150.49 35.2V41H147.01C144.53 41 142.597 40.4 141.21 39.2C139.824 37.9733 139.13 35.9867 139.13 33.24V24.36H136.41V18.68H139.13V13.24H145.97V18.68H150.45V24.36H145.97V33.32C145.97 33.9867 146.13 34.4667 146.45 34.76C146.77 35.0533 147.304 35.2 148.05 35.2H150.49Z" fill="#027FFF"/>
<path d="M174.5 12.92V18.4H167.06V41H160.22V18.4H152.78V12.92H174.5ZM181.373 16.36C180.173 16.36 179.186 16.0133 178.413 15.32C177.666 14.6 177.293 13.72 177.293 12.68C177.293 11.6133 177.666 10.7333 178.413 10.04C179.186 9.32 180.173 8.96 181.373 8.96C182.546 8.96 183.506 9.32 184.253 10.04C185.026 10.7333 185.413 11.6133 185.413 12.68C185.413 13.72 185.026 14.6 184.253 15.32C183.506 16.0133 182.546 16.36 181.373 16.36ZM184.773 18.68V41H177.933V18.68H184.773ZM218.21 18.44C220.983 18.44 223.183 19.28 224.81 20.96C226.463 22.64 227.29 24.9733 227.29 27.96V41H220.49V28.88C220.49 27.44 220.103 26.3333 219.33 25.56C218.583 24.76 217.543 24.36 216.21 24.36C214.877 24.36 213.823 24.76 213.05 25.56C212.303 26.3333 211.93 27.44 211.93 28.88V41H205.13V28.88C205.13 27.44 204.743 26.3333 203.97 25.56C203.223 24.76 202.183 24.36 200.85 24.36C199.517 24.36 198.463 24.76 197.69 25.56C196.943 26.3333 196.57 27.44 196.57 28.88V41H189.73V18.68H196.57V21.48C197.263 20.5467 198.17 19.8133 199.29 19.28C200.41 18.72 201.677 18.44 203.09 18.44C204.77 18.44 206.263 18.8 207.57 19.52C208.903 20.24 209.943 21.2667 210.69 22.6C211.463 21.3733 212.517 20.3733 213.85 19.6C215.183 18.8267 216.637 18.44 218.21 18.44ZM253.114 29.48C253.114 30.12 253.074 30.7867 252.994 31.48H237.514C237.62 32.8667 238.06 33.9333 238.834 34.68C239.634 35.4 240.607 35.76 241.754 35.76C243.46 35.76 244.647 35.04 245.314 33.6H252.594C252.22 35.0667 251.54 36.3867 250.554 37.56C249.594 38.7333 248.38 39.6533 246.914 40.32C245.447 40.9867 243.807 41.32 241.994 41.32C239.807 41.32 237.86 40.8533 236.154 39.92C234.447 38.9867 233.114 37.6533 232.154 35.92C231.194 34.1867 230.714 32.16 230.714 29.84C230.714 27.52 231.18 25.4933 232.114 23.76C233.074 22.0267 234.407 20.6933 236.114 19.76C237.82 18.8267 239.78 18.36 241.994 18.36C244.154 18.36 246.074 18.8133 247.754 19.72C249.434 20.6267 250.74 21.92 251.674 23.6C252.634 25.28 253.114 27.24 253.114 29.48ZM246.114 27.68C246.114 26.5067 245.714 25.5733 244.914 24.88C244.114 24.1867 243.114 23.84 241.914 23.84C240.767 23.84 239.794 24.1733 238.994 24.84C238.22 25.5067 237.74 26.4533 237.554 27.68H246.114Z" fill="#FF8E25"/>
</svg>
